<svg xmlns="http://www.w3.org/2000/svg" width="278" height="118" fill="currentColor">
    <path fill="currentColor" fill-rule="evenodd"
        d="M127.825 1.926c-.005 1.035-.914 1.926-1.945 1.908-.96-.016-1.86-.949-1.855-1.921.005-.981.896-1.896 1.868-1.914 1-.02 1.937.915 1.932 1.928v-.002zm11.928 5.513-.555.426-.057-.463-.084-.673c-.126-.892-.701-.873-1.274-.854-.162.005-.324.011-.476-.005-.681-.069-.661.352-.643.749l.006.216-.159 12.143v.021c-.023 1.769-.02 1.77 1.648 1.853l.107.005c.769.039.957-.227.956-.954a127.23 127.23 0 0 1 .039-3.026v-.001l-.016-5.289c-.086-1.683.696-2.528 2.002-3.194 2.805-1.43 5.099-.054 5.086 3.079l-.056 5.485-.035 2.743-.001.767.001.487.66-.005 1.315.014c.542.032.743-.163.73-.712l.001-2.215.01-1.002.043-2.052v-.002l-.05-4.556c-.392-4.236-4.536-6.105-8.117-3.772-.365.237-.71.505-1.081.794zm19.739 7.08c-.891 3.98 2.147 6.901 6.038 5.94a9.811 9.811 0 0 0 1.601-.555c.821-.36 1.115.143 1.441.702l.057.097c.345.585-.018.776-.362.957l-.18.1c-3.945 2.399-9.463.627-10.949-3.507-1.244-3.455-.015-7.877 2.717-9.777 2.152-1.497 5.389-1.522 7.606-.059 2.041 1.348 2.984 3.949 2.458 6.646-.143.738-.492.883-1.192.777l-6.775-.974h-.001l-2.459-.345zm5.299-5.045c2 .363 3.187 2.193 2.745 4.424l-7.661-1.079c.308-2.109 2.082-3.86 4.916-3.344zM70.107 37.661l-1.663-3.678-.075-.166-.068-.15-6.828-15.096 1.727-.792 3.923-1.748c1.231-.508 2.501-.983 3.798-1.25 2.439-.503 4.315.398 5.451 2.415 1.14 2.025.884 4.017-.76 5.931l-.182.213-.148.174c.067 0 .119.002.164.003.07.002.118.004.166-.003 2.576-.421 4.278.267 5.38 2.179 1.217 2.107 1.011 4.571-.517 6.431-1.03 1.255-2.369 2.064-3.825 2.716l-3.509 1.577-.002.001-2.76 1.242c-.028.013-.064.011-.124.007-.038-.002-.087-.005-.15-.005h.002zm2.399-3.541c.414-.173.802-.336 1.177-.526l1.043-.514c.989-.48 1.979-.96 2.872-1.58 1.397-.97 1.68-2.519 1.025-4.064-.671-1.583-1.921-2.453-3.637-1.989-1.461.394-2.872.974-4.295 1.558l-1.854.745 2.798 6.164a3.42 3.42 0 0 0 .148.275l.109.192v-.002l.605-.256.001-.001.002-.001zM69.3 25.349h-.001l-.002.001-1.267.585-1.059-2.339-1.9-4.197 1.67-.668c1.263-.512 2.501-1.014 3.771-1.414 1.41-.444 2.603.167 3.34 1.398.846 1.416.828 2.884-.138 3.98-.426.483-.93.952-1.494 1.25-.943.497-1.914.942-2.919 1.403l-.001.001zm90.6 64.174.032.068 2.478 5.308c.035.077.073.152.11.228v.001l.001.001c.054.111.109.222.157.335.709 1.645.244 2.351-1.558 2.352h-9.661a7.58 7.58 0 0 0-.557.028l-.316.022.06.281.07.332.129.61.002.012.008.037.002.01.482 2.26.511 2.335.001.002v.003l.001.003.001.003v.003l.001.003.001.003v.003l.001.002v.003l.001.003.001.003v.003l.001.003.001.003v.002l.001.003.001.003v.003l2.681 12.195c.169.759.195 1.451-.597 1.858-.761.39-1.288-.052-1.791-.577l-8.642-8.993-.007-.008-20.723-21.584c-.601-.627-1.205-.89-2.087-.888l-24.663.02-5.925-.002c-1.125 0-1.908-.533-2.351-1.599-3.943-9.506.116-21.15 9.133-25.812 1.437-.743 2.093-1.547 2.403-3.129 1.201-6.123 6.425-11.12 12.62-12.163.987-.166 1.998-.176 3.01-.186.596-.006 1.193-.012 1.785-.05.369-.023.839-.142 1.07-.394 5.816-6.329 15.032-7.233 21.847-2.086.526.398.817.414 1.349.004 6.655-5.131 16.116-4.229 21.78 2.018.25.276.769.494 1.129.453 7.131-.833 14.686 3.478 17.136 11.212.158.5.261 1.017.364 1.535.084.418.167.837.28 1.247.079.288.306.646.562.763 6.818 3.085 10.603 8.486 11.842 15.726.678 3.964.125 7.847-1.505 11.553-.333.755-.905.917-1.659.915l-18.758-.005h-.007l-5.117.002c-2.609 0-5.215-.002-7.824-.004h-1.02l-.001.004 1.728 3.702zm17.365-6.268c.29-2.605-.653-4.429-2.743-5.711-.852-.523-1.064-1.26-.644-1.953.388-.639 1.127-.745 1.964-.242 1.466.881 2.723 2.012 3.301 3.643.321.905.519 1.853.727 2.852l.307 1.412h.757l2.327-.006 6.17.033c.858.022 1.198-.288 1.431-1.047 1.608-5.244 1.127-10.294-1.619-15.022-2.423-4.17-5.836-7.174-10.808-7.856-3.711-.508-7.14.202-9.912 2.931-.51.503-.947 1.082-1.383 1.66h-.001v.001l-.53.691c-.528.666-1.17.829-1.789.431-.642-.412-.791-1.157-.32-1.88 2.223-3.41 5.24-5.702 9.33-6.3 1.14-.167 2.302-.194 3.474-.222l1.607-.051.001-.053.003-.048a1.501 1.501 0 0 0-.008-.345c-.925-5.426-6.076-10.21-11.545-10.702-5.364-.482-9.901 1.362-13.699 5.066-2.78 2.711-4.464 6.074-5.444 9.811-.243.926-.83 1.3-1.634 1.092-.678-.175-1.071-.84-.851-1.622 1.934-6.875 5.711-12.274 12.359-15.344.467-.215.952-.393 1.446-.574h.001l.716-.267c-4.976-5.299-13.671-5.043-17.936-.94l.707 1.495c.552 1.145 1.094 2.268 1.487 3.441.367 1.095.442 2.306.514 3.484l.019.3c.046.741-.453 1.239-1.238 1.239-.773 0-1.201-.444-1.265-1.221l-.041-.535-.041-.536c-.192-2.202-.988-4.171-2.339-5.903-3.855-4.948-11.445-6.3-16.987-3.011-.673.399-1.303.869-1.972 1.369l-.991.729.339.163c.11.054.17.084.234.106 5.267 1.765 9.115 5.233 11.704 10.067.809 1.51 1.393 3.146 1.975 4.776h.001l.423 1.174c.292.791-.172 1.479-.912 1.654-.73.172-1.29-.186-1.543-.992a4.86 4.86 0 0 1-.093-.357c-.027-.112-.054-.225-.087-.335-2.224-7.251-6.607-12.319-14.241-14.095a13.54 13.54 0 0 0-14.251 5.591c-1.111 1.643-1.869 3.425-2.123 5.485l.873-.063c2.843-.218 5.591.09 8.171 1.413 2.318 1.189 4.095 2.956 5.48 5.135.434.684.27 1.414-.33 1.815-.613.41-1.275.265-1.792-.401a5.51 5.51 0 0 1-.249-.362l-.054-.082c-3.828-5.885-11.02-5.831-15.012-3.901-8.017 3.876-11.933 13.785-8.858 22.201.191.526.438.739 1.018.732l5.601-.017 2.001.002h2.41c.032-.054.056-.089.073-.114.025-.037.034-.051.034-.066l.01-.356.01-.356c.113-3.067 1.458-5.419 4.086-7.018.805-.491 1.56-.392 1.977.234.428.643.222 1.362-.549 1.905-.083.059-.171.111-.259.163s-.184.109-.271.172c-1.477 1.049-2.306 2.464-2.385 4.29-.048 1.131-.034 1.147 1.104 1.147h29.341l-.055-.127-.083-.194a9.32 9.32 0 0 0-.221-.494l-1.676-3.384-.003-.007-.002-.003-.001-.003-2.839-5.742c-.691-1.404-.154-2.234 1.431-2.247h.626l4.927.007h.002l13.318-.041c1.448-.02 2.133.55 2.68 1.79l2.65 5.775.001.002.001.002v.002l.001.002.001.002.001.002v.002l.001.002.001.002.001.002v.002l.001.002.001.002.001.002v.002l.001.002.001.002v.002l.001.002 1.789 3.858c.276.603.623.802 1.287.798l14.407-.019h.06l3.869.001h1.05l.004-.002zm-17.667 11.999c-.004-.067-.004-.124-.004-.172.001-.08.002-.137-.02-.183l-3.209-6.888-.01-.021-6.404-13.764c-.229-.496-.55-.61-1.047-.609l-10.292.014h-.004l-5.716.005a2.39 2.39 0 0 0-.402.047l-.055.009-.051.008-.129.02.019.047.06.151v.001c.041.103.074.188.114.27l4.577 9.211c.844 1.701.381 2.431-1.546 2.431l-8.856.002c-.204 0-.41.011-.665.025l-.441.022 14.213 14.778 11.396 11.85-.087-.496-.117-.622-1.324-6.026-1.766-8.035c-.332-1.518.108-2.066 1.663-2.073l5.4-.004h.001l2.023.001h2.679zm53.27-59.045c.925 3.373 4.603 6.198 8.745 6.23l.001.004c2.017-.047 3.897-1.4 5.108-3.77 1.106-2.164.408-4.039-.971-5.792a21.62 21.62 0 0 0-.393-.482l-.174-.211-.81-.96c-.62-.725-1.239-1.449-1.77-2.234-.866-1.282-.778-2.322.077-3.38.869-1.076 2.011-1.314 3.299-.965 1.823.492 3.043 1.67 3.807 3.377.243.544.594 1.056 1.299.618l.511-.31c.455-.271.676-.403.73-.585.052-.172-.046-.389-.237-.812l-.004-.009c-1.132-2.505-3.102-4.071-5.716-4.744-3.813-.981-7.423 1.923-7.239 5.729.083 1.703 1.104 2.913 2.138 4.123l.634.73.001.001.002.002c.671.767 1.342 1.534 1.92 2.363.732 1.049.638 2.193-.118 3.255-1.222 1.712-3.276 2.034-5.335.868-1.485-.84-2.335-2.163-2.967-3.686-.377-.909-.717-1.006-1.592-.544-.06.032-.125.06-.191.089-.163.071-.328.143-.421.267-.177.234-.399.594-.334.829zM33.565 63.684l-.001.001-.337-.376-.561-.624-1.516-1.668-.002-.003-4.359-4.818c-.245-.274-.547-.65-.539-.97.039-1.531.437-2.938 1.703-3.969 1.15-.936 2.326-1.015 3.512-.136.449.335.853.743 1.235 1.158l4.29 4.705.002.002 1.787 1.965L40 57.836l.833-.761-2.314-2.489c-1.761-1.914-3.503-3.807-5.389-5.54-2.075-1.905-4.763-1.439-6.675.657-1.075 1.176-1.49 2.594-1.662 4.3l-1.368-1.5-4.418-4.845-.956.873-1.037.946 7.3 8.036.049.054L31.57 65.5l1.999-1.809.003.003-.002-.004zm204.3-8.824 1.456 1.099 1.959-2.599c1.467-1.93 2.905-3.822 4.215-5.798 2.246-3.387.315-7.312-3.737-7.883-.488-.068-.982-.086-1.508-.105l-.773-.033 2.283-3.047.034-.045 2.757-3.679-1.195-.887-.972-.721-8.442 11.208-4.583 6.085.236.176.054.04.008.006 1.862 1.389.112-.145.234-.302.001-.002.003-.004.428-.557 1.586-2.105.009-.012.002-.002v-.001l.001-.001.001-.001.001-.001.001-.001v-.001l3.736-4.944c.206-.269.478-.568.782-.67 1.608-.544 3.957.249 4.902 1.601.76 1.087.562 2.431-.63 4.025l-3.18 4.225-1.879 2.492a7.46 7.46 0 0 0-.304.445l-.002.003-.002.003h-.001l-.055.084-.035.053-.058.087.693.523zM20.501 77.578 9.559 68.396l-3.29-2.761-1.048 1.243-.051.06-3.282 3.894-.255-.215-.009-.008L0 69.239l10.6-12.657.845.717 1.044.885-2.503 3.006-.015.018-.006.007-1.802 2.163 2.004 1.683.06.05.129.109.022.019.05.042.062.052 11.902 9.996-.583.694-.01.012-1.298 1.544zm23.527-32.481c2.295 3.212 5.539 3.572 7.91.926.506-.566.878-1.271 1.231-1.955.522-1.012.683-1.083 1.728-.741.546.179.603.476.456.944-.889 2.832-2.811 4.692-5.571 5.6-2.535.834-4.782.043-6.648-1.756-2.21-2.13-3.564-4.631-2.897-7.841.522-2.517 2.991-4.719 5.709-5.135 2.294-.351 4.898 1.065 6.178 3.308.347.609.098.906-.379 1.237l-5.399 3.773-.001.001-1.339.94-.657.47-.003.002-.317.228zm5.512-5.987-6.395 4.475c-1.33-2.157-.794-4.453 1.289-5.778 1.825-1.162 3.813-.677 5.106 1.303zm48.221-27.839-.004.001-.005.002-.01.003-1.56.469h-.002l.057.273v.003a4.5 4.5 0 0 0 .08.35l.667 2.28 1.984 6.901a2.04 2.04 0 0 1-.175 1.395 5.59 5.59 0 0 1-1.308 1.559c-2.245 1.837-4.542 1.135-5.396-1.619l-.962-3.232-.381-1.303-.791-2.697-.006-.019-.037-.126-.019-.066-.014-.046-.009-.032-.486-1.659-2.501.759c.013.086.022.164.031.236.016.133.029.245.06.353l.703 2.43.001.003 1.943 6.562c1.195 3.828 4.992 5.034 8.165 2.576.565-.439 1.034-1.003 1.499-1.563.212-.255.423-.51.643-.752 1.077 1.764 1.093 1.769 2.952.909l-2.372-8.156-1.77-6.089-.979.295zm159.602 51.526-5.329 5.053-.003.002 1.871 1.959 5.08-4.792.014-.013.071-.067.216-.203.474-.447.095-.09 3.155-2.976 1.777 1.731.587.572.695.677.756-.933.457-.564-1.469-1.578-1.359-1.459c.21-.177.413-.355.612-.531.443-.391.87-.768 1.341-1.078 1.054-.695 2.074-.589 3.044.215.134.111.256.243.376.374.188.203.373.405.604.526.25.131.714.086.963-.07l.066-.041.039-.023.034-.02c.342-.199.756-.44.41-1.008-1.362-2.236-4.199-4.08-7.289-1.953-.471.325-.905.705-1.373 1.116l-.718.619-.429-.47-.004-.005-1.051-1.151-.344.278c-.391.313-.621.496-.676.722-.079.322.195.731.861 1.724l.123.183.095.143-3.772 3.577zm-59.064-46.708c2.018.199 3.999 1.065 5.391 3.043l.012.018c.268.383.494.704-.057 1.09l-.136.097c-.458.33-.874.63-1.388.026-.831-.972-1.761-1.814-3.076-2.005-.54-.079-1.143-.068-1.66.091-1.124.347-1.519 1.579-.803 2.508.341.443.767.822 1.192 1.199l.396.357c.287.264.586.519.884.773.565.482 1.13.963 1.617 1.513 2.122 2.395-.177 6.03-2.864 6.343-2.986.347-5.344-.795-7.144-3.167-.297-.392-.479-.727.065-1.11l.053-.038.04-.029c.501-.358.976-.698 1.551-.136.178.175.331.376.483.577.137.18.274.361.429.522.961.995 2.133 1.506 3.53 1.402.922-.068 1.562-.551 1.886-1.416.3-.802.014-1.495-.571-2.025-.506-.459-1.033-.894-1.56-1.33h-.001l-1.368-1.158c-1.572-1.395-1.994-2.82-1.374-4.453.63-1.654 2.231-2.694 4.471-2.698l.002.004zm-13.091-1.726c1.265 1.074 1.29 1.071 2.455-.274l-.002-.002c-1.272-1.858-3.027-2.825-5.172-3.024a6.574 6.574 0 0 0-2.541.292c-1.626.523-2.511 1.764-2.726 3.443-.192 1.5.581 2.585 1.708 3.427.485.361.99.696 1.495 1.03.689.456 1.376.911 2.01 1.434 1.213 1.001.821 2.868-.646 3.362-.438.147-.941.186-1.406.156-1.313-.082-2.369-.704-3.258-1.665-.871-.942-1.084-.929-2.025-.032-.102.096-.194.205-.284.31v.001l-.001.001-.001.001-.001.001v.001l-.001.001-.111.129c1.603 2.431 4.839 3.772 7.593 3.14 1.914-.439 3.045-1.697 3.453-3.579.374-1.724-.505-2.916-1.827-3.869l-.805-.566-.77-.513h-.001c-.538-.355-1.076-.71-1.592-1.095-.625-.464-1.081-1.076-.85-1.917s.868-1.271 1.696-1.386c1.39-.193 2.567.308 3.61 1.194zm-75.993 7.908c.017-.055.031-.107.045-.156.032-.11.059-.206.096-.299.512-1.266.755-1.393 2.006-.856 1.275.55 2.578.668 3.8.048.605-.306 1.206-.913 1.478-1.531.547-1.25-.254-2.292-1.866-2.607-.5-.098-1.004-.175-1.508-.253-.615-.095-1.23-.189-1.836-.32-2.108-.455-3.206-1.549-3.387-3.273-.2-1.916.705-3.516 2.548-4.406 2.046-.988 4.118-1.096 6.197-.073l.041.02.035.017h.001c.354.171.678.328.429.879a8.98 8.98 0 0 0-.087.205c-.18.436-.349.846-.984.733-.292-.052-.58-.14-.865-.227l-.082-.025c-1.189-.362-2.354-.322-3.474.236-.81.405-1.302 1.042-1.238 1.993.063.942.737 1.337 1.528 1.513.762.169 1.532.303 2.302.437l1.383.249c1.698.326 3.067 1.083 3.389 2.952.333 1.933-.274 3.523-1.916 4.676-2.179 1.529-5.691 1.586-8.031.064l-.004.002zM276.187 68.57l1.465-1.18v-.002c-.996-1.593-1.095-1.617-2.578-.697l-.941.568-.513.306-.025.015c-1.432.861-1.462.879-2.705-.333-.482-.469-.788-.304-1.199.036-.417.346-.546.691-.195 1.142l.772.991.194.248-.815.658-.009.007-1.929 1.552-1.761 1.402-.004.003-.001.001-.001.001-.001.001h-.001l-.001.001-2.562 2.044c-1.429 1.151-1.948 2.526-1.422 3.903.626 1.64 1.855 2.669 3.501 3.194.204.065.614-.054.719-.22.637-.999.505-1.396-.545-1.935-1.385-.709-1.534-1.968-.346-2.995.25-.216.509-.42.767-.625l.002-.001.273-.217 2.619-2.086.161-.128 3.052-2.431 2.209 2.722.459.565 1.522-1.216-1.702-2.175-.106-.136-.793-1.013 2.405-1.939.035-.028zM127.493 21.413h-.005l-1.289.106-.135-1.599-.02-.237-.018-.217-1.08-12.806 1.733-.154.971-.086.482 5.794.009.109.005.053.744 8.923-1.397.114zM249.659 55.43l-.017.018-4.964 5.412.761.7.009.008 1.224 1.127 7.529-8.216.019-.021 2.541-2.773-.316-.285-.032-.029-1.657-1.496-5.097 5.555zm9.297-6.171a1.81 1.81 0 0 0 1.82-1.903h-.002c-.012-1.053-.846-1.889-1.871-1.876a1.91 1.91 0 0 0-1.882 1.975c.037 1.056.864 1.828 1.935 1.805zM162.702 77.63c-3.437-.122-6.201-2.057-7.425-5.305-1.235-3.273-.893-6.515.277-9.705 1.94-5.287 5.838-8.821 10.552-11.587.746-.437 1.467-.233 1.847.446.373.67.116 1.378-.696 1.856-2.51 1.475-4.822 3.208-6.638 5.502-2.431 3.07-3.812 6.524-3.455 10.52.399 4.458 3.963 6.685 8.092 5.023.986-.396 1.931-.942 2.813-1.538.89-.604 1.76-1.238 2.63-1.872l2.61-1.859c1.616-1.096 3.356-1.939 5.351-2.082.326-.023.657-.038.981-.007.703.068 1.077.516 1.105 1.183.029.675-.329 1.237-1.012 1.257-2.814.079-4.917 1.63-7.025 3.184l-.003.003-.368.271-.947.704c-1.807 1.355-3.616 2.711-5.825 3.385-.636.194-1.293.319-1.95.443h-.001l-.913.18v-.002zm-38.307-3.525c1.211-1.819 1.657-3.872 1.682-6.145v-.001c-.084-3.552-1.304-6.843-3.401-9.802-2.141-3.02-4.995-5.262-8.171-7.106-.764-.444-1.451-.256-1.842.431-.36.632-.163 1.309.518 1.769.068.045.14.082.212.12.06.031.121.063.178.099 3.314 2.044 6.291 4.445 8.125 7.983 1.644 3.167 2.444 6.468 1.205 9.992-.771 2.193-2.669 3.509-4.991 3.496-1.868-.011-3.474-.791-4.965-1.808-.92-.629-1.823-1.283-2.725-1.938l-2.961-2.097c-1.798-1.214-3.741-2.109-5.98-2.102-.854.002-1.43.507-1.444 1.242-.014.705.51 1.114 1.325 1.285l.149.031c1.107.233 2.237.471 3.254.934.753.342 1.439.828 2.126 1.314l.878.607c.665.438 1.319.896 1.974 1.355 1.447 1.014 2.895 2.027 4.454 2.819 3.89 1.975 8.193.841 10.4-2.478z" />
</svg>