<svg width="18" height="33" viewBox="0 0 18 33" fill="none" xmlns="http://www.w3.org/2000/svg">
    <path
        d="M17.584 21.872C17.584 23.072 17.284 24.2 16.684 25.256C16.108 26.312 15.244 27.2 14.092 27.92C12.964 28.64 11.62 29.072 10.06 29.216V32.132H7.72V29.216C5.464 29 3.64 28.292 2.248 27.092C0.856 25.892 0.16 24.308 0.16 22.34H4.552C4.624 23.276 4.924 24.056 5.452 24.68C5.98 25.28 6.736 25.664 7.72 25.832V17.912C6.112 17.504 4.804 17.096 3.796 16.688C2.788 16.256 1.924 15.584 1.204 14.672C0.508 13.76 0.16 12.512 0.16 10.928C0.16 8.936 0.856 7.292 2.248 5.996C3.64 4.676 5.464 3.908 7.72 3.692V0.775999H10.06V3.692C12.172 3.884 13.864 4.556 15.136 5.708C16.432 6.836 17.164 8.396 17.332 10.388H12.94C12.868 9.644 12.58 8.984 12.076 8.408C11.572 7.808 10.9 7.4 10.06 7.184V14.96C11.668 15.344 12.976 15.752 13.984 16.184C14.992 16.592 15.844 17.252 16.54 18.164C17.236 19.052 17.584 20.288 17.584 21.872ZM4.336 10.712C4.336 11.696 4.624 12.464 5.2 13.016C5.8 13.568 6.64 14.012 7.72 14.348V7.076C6.688 7.196 5.86 7.568 5.236 8.192C4.636 8.816 4.336 9.656 4.336 10.712ZM10.06 25.832C11.116 25.664 11.944 25.244 12.544 24.572C13.144 23.876 13.444 23.048 13.444 22.088C13.444 21.128 13.144 20.384 12.544 19.856C11.968 19.304 11.14 18.86 10.06 18.524V25.832Z"
        fill="white" />
</svg>