<svg width="29" height="36" viewBox="0 0 29 36" fill="none" xmlns="http://www.w3.org/2000/svg">
    <g clip-path="url(#clip0_5_255)">
        <path
            d="M17.2615 4.93185C18.6234 4.93185 19.7274 3.82782 19.7274 2.46592C19.7274 1.10403 18.6234 0 17.2615 0L9.67594 0C8.31405 0 7.21002 1.10403 7.21002 2.46592C7.21002 3.82782 8.31405 4.93185 9.67594 4.93185L17.2615 4.93185Z"
            fill="white" />
        <path
            d="M13.5313 7.39778C14.3574 7.39778 15.1586 7.4854 15.9472 7.62309V3.0918H11.0153V7.63561C11.8289 7.4854 12.6801 7.39778 13.5313 7.39778Z"
            fill="white" />
        <path
            d="M21.8053 8.92489C21.5549 9.18775 21.3922 9.50068 21.2796 9.82614C22.4061 10.4145 23.4826 11.1405 24.459 12.0417C25.4353 12.943 26.249 13.9569 26.9374 15.0334C27.2504 14.8957 27.5383 14.7079 27.7886 14.4325C28.7149 13.4311 28.6523 11.8665 27.6384 10.9527L25.2726 8.78719C24.2712 7.86091 22.7065 7.92349 21.7928 8.9374L21.8053 8.92489Z"
            fill="white" />
        <path
            d="M6.64672 8.92489C6.89707 9.18775 7.0598 9.50068 7.17245 9.82614C6.04589 10.4145 4.96939 11.1405 3.99304 12.0417C3.01668 12.943 2.20305 13.9569 1.5146 15.0334C1.20166 14.8957 0.913762 14.7079 0.663414 14.4325C-0.262872 13.4311 -0.200285 11.8665 0.813623 10.9527L3.17941 8.78719C4.1808 7.86091 5.74547 7.92349 6.65924 8.9374L6.64672 8.92489Z"
            fill="white" />
        <path
            d="M13.9694 9.6384C6.69679 9.6384 0.788589 15.5466 0.788589 22.8192C0.788589 30.0918 6.69679 36 13.9694 36C21.242 36 27.1502 30.0918 27.1502 22.8192C27.1502 15.5466 21.242 9.6384 13.9694 9.6384ZM15.096 23.42C15.096 24.1085 14.5327 24.6718 13.8442 24.6718C13.1558 24.6718 12.5925 24.1085 12.5925 23.42V15.6843C12.5925 14.9958 13.1558 14.4326 13.8442 14.4326C14.5327 14.4326 15.096 14.9958 15.096 15.6843V23.42Z"
            fill="white" />
    </g>
    <defs>
        <clipPath id="clip0_5_255">
            <rect width="28.4395" height="36" fill="white" />
        </clipPath>
    </defs>
</svg>