<svg width="24" height="24" viewBox="0 0 24 24" fill="currentColor"
    xmlns="http://www.w3.org/2000/svg">
    <g clip-path="url(#clip0_20_732)">
        <path
            d="M7.84938 11.0916C7.84938 9.02329 9.5264 7.34627 11.5947 7.34627H18.2469V5.89286C18.2469 4.29969 16.9472 3 15.354 3H5.89286C4.29969 3 3 4.29969 3 5.89286V17.4503C3 18.0233 3.68478 18.3168 4.10404 17.9255L7.7236 14.4736H7.84938V11.0916Z"
            fill="currentColor" />
        <path
            d="M11.5948 8.74377H19.2671C20.5668 8.74377 21.615 9.79191 21.615 11.0916V20.4689C21.615 20.9301 21.056 21.1677 20.7206 20.8463L17.7858 18.0512H11.5948C10.2951 18.0512 9.24695 17.0031 9.24695 15.7034V11.0916C9.24695 9.79191 10.2951 8.74377 11.5948 8.74377Z"
            fill="currentColor" />
    </g>
    <defs>
        <clipPath id="clip0_20_732">
            <rect width="18.6009" height="18" fill="currentColor" transform="translate(3 3)" />
        </clipPath>
    </defs>
</svg>