<svg width="24" height="24" viewBox="0 0 24 24" fill="currentColor"
    xmlns="http://www.w3.org/2000/svg">
    <g clip-path="url(#clip0_20_731)">
        <path
            d="M8.56788 7.04541C4.3888 7.04541 1 10.3934 1 14.5233C1 18.6531 4.3888 22.0001 8.56788 22.0001C12.747 22.0001 16.1358 18.6521 16.1358 14.5233C16.1358 10.3945 12.747 7.04647 8.56788 7.04647V7.04541ZM11.7269 11.8765C12.3346 11.8765 12.8275 12.3634 12.8275 12.9638C12.8275 13.5643 12.3346 14.0512 11.7269 14.0512C11.1191 14.0512 10.6263 13.5643 10.6263 12.9638C10.6263 12.3634 11.1191 11.8765 11.7269 11.8765ZM5.60644 11.8765C6.21419 11.8765 6.70705 12.3634 6.70705 12.9638C6.70705 13.5643 6.21419 14.0512 5.60644 14.0512C4.99869 14.0512 4.50584 13.5643 4.50584 12.9638C4.50584 12.3634 4.99869 11.8765 5.60644 11.8765ZM12.849 16.7712C12.1317 18.4919 10.4513 19.6036 8.56788 19.6036C6.6845 19.6036 5.00514 18.4919 4.28679 16.7712C4.19659 16.5548 4.30075 16.3065 4.5198 16.2174C4.73884 16.1283 4.9901 16.2312 5.0803 16.4476C5.66443 17.849 7.03348 18.755 8.56681 18.755C10.1001 18.755 11.4692 17.849 12.0533 16.4476C12.1435 16.2312 12.3948 16.1273 12.6138 16.2174C12.8329 16.3065 12.9381 16.5548 12.8468 16.7712H12.849Z"
            fill="currentColor" />
        <path
            d="M16.1583 2C13.0894 2 10.4491 3.80555 9.26147 6.40036C10.3567 6.49053 11.3897 6.79075 12.3217 7.26176C12.5225 7.0008 12.8393 6.83106 13.1968 6.83106C13.8046 6.83106 14.2974 7.31799 14.2974 7.91842C14.2974 8.13059 14.2351 8.32897 14.1278 8.49658C14.946 9.23386 15.6128 10.1335 16.0777 11.1413C16.1046 11.1413 16.1314 11.1402 16.1583 11.1402C18.0416 11.1402 19.721 12.2519 20.4393 13.9726C20.5295 14.189 20.4254 14.4373 20.2063 14.5264C20.1527 14.5487 20.0979 14.5582 20.0431 14.5582C19.8745 14.5582 19.7146 14.4596 19.6458 14.2951C19.0939 12.9733 17.8441 12.0928 16.417 11.9973C16.679 12.793 16.8229 13.6406 16.8229 14.5221C16.8229 15.4037 16.693 16.1802 16.4525 16.9462C20.4963 16.7945 23.7283 13.509 23.7283 9.47573C23.7283 5.44242 20.3384 2 16.1583 2ZM19.3173 9.00578C18.7095 9.00578 18.2167 8.51886 18.2167 7.91842C18.2167 7.31799 18.7095 6.83106 19.3173 6.83106C19.925 6.83106 20.4179 7.31799 20.4179 7.91842C20.4179 8.51886 19.925 9.00578 19.3173 9.00578Z"
            fill="currentColor" />
    </g>
    <defs>
        <clipPath id="clip0_20_731">
            <rect width="22.7273" height="20" fill="currentColor" transform="translate(1 2)" />
        </clipPath>
    </defs>
</svg>