<svg width="24" height="24" viewBox="0 0 24 24" fill="currentColor"
    xmlns="http://www.w3.org/2000/svg">
    <path
        d="M1 11.5992C1 13.4186 2.17632 14.9644 3.84641 15.6211L5.45841 19.7113C5.86504 20.7373 7.07041 21.2571 8.1596 20.8741C9.24879 20.4911 9.80064 19.3556 9.39401 18.3297L8.46457 15.9494H12.6471V7.23535H5.63268C3.07672 7.23535 1 9.19156 1 11.5992Z"
        fill="currentColor" />
    <path
        d="M18.4821 3.07848L13.7059 6.70003V16.2557L18.4821 19.8772C18.6979 20.0372 19.0001 19.8772 19.0001 19.6154V3.32573C19.0001 3.06393 18.6979 2.90395 18.4821 3.06393V3.07848Z"
        fill="currentColor" />
    <path
        d="M20.0588 8.30941V14.647C21.8601 14.3861 23.2353 13.1432 23.2353 11.624V11.3171C23.2353 9.81325 21.8601 8.55494 20.0588 8.29407V8.30941Z"
        fill="currentColor" />
</svg>