<svg width="24" height="24" viewBox="0 0 24 24" fill="currentColor"
    xmlns="http://www.w3.org/2000/svg">
    <path
        d="M4 18.3394C4 19.2542 4.71918 20.0006 5.61638 20.0006H18.3836C19.2737 20.0006 20 19.2615 20 18.3394V10.7651H4V18.3394Z"
        fill="currentColor" />
    <path
        d="M18.3836 4.73474H17.0165L17.0449 4.14929C17.0734 3.54189 16.6177 3.02962 16.0267 3.00034C15.4428 2.98571 14.9373 3.43943 14.9088 4.04684L14.8803 4.73474H9.1838L9.21228 4.14929C9.24077 3.54189 8.78505 3.02962 8.19404 3.00034C7.61015 2.98571 7.10458 3.43943 7.0761 4.04684L7.04762 4.73474H5.61638C4.7263 4.73474 4 5.47387 4 6.39595V8.59139H20V6.39595C20 5.48119 19.2808 4.73474 18.3836 4.73474Z"
        fill="currentColor" />
</svg>