<svg width="24" height="24" viewBox="0 0 24 24" fill="none" xmlns="http://www.w3.org/2000/svg">
  <path d="M20.7445 18.2341L5.76564 3.25521C5.0724 2.56198 3.94845 2.56198 3.25521 3.25521C2.56198 3.94844 2.56198 5.0724 3.25522 5.76563L18.2341 20.7445C18.9273 21.4377 20.0513 21.4377 20.7445 20.7445C21.4377 20.0513 21.4377 18.9273 20.7445 18.2341Z" fill="currentColor"/>
  <path d="M5.76593 20.7446L20.7448 5.7657C21.438 5.07246 21.438 3.94851 20.7448 3.25527C20.0516 2.56204 18.9276 2.56204 18.2344 3.25528L3.25551 18.2341C2.56228 18.9274 2.56228 20.0513 3.25551 20.7446C3.94874 21.4378 5.0727 21.4378 5.76593 20.7446Z" fill="currentColor"/>
</svg>
