<svg width="24" height="24" viewBox="0 0 24 24" fill="currentColor"
    xmlns="http://www.w3.org/2000/svg">
    <path
        d="M9.97834 4H3.91801C3.41101 4 3 4.36525 3 4.81582V7.89337C3 8.34393 3.41101 8.70918 3.91801 8.70918H9.97834C10.4853 8.70918 10.8963 8.34393 10.8963 7.89337V4.81582C10.8963 4.36525 10.4853 4 9.97834 4Z"
        fill="currentColor" />
    <path
        d="M3.94459 20.2498H10.1804C10.7021 20.2498 11.125 19.9214 11.125 19.5164L11.125 12.0456C11.125 11.6406 10.7021 11.3123 10.1804 11.3123H3.94459C3.42291 11.3123 3 11.6406 3 12.0456L3 19.5164C3 19.9214 3.42291 20.2498 3.94459 20.2498Z"
        fill="currentColor" />
    <path
        d="M14.7092 20.25L20.7695 20.25C21.2765 20.25 21.6875 19.8847 21.6875 19.4342L21.6875 16.3566C21.6875 15.9061 21.2765 15.5408 20.7695 15.5408L14.7092 15.5408C14.2022 15.5408 13.7912 15.9061 13.7912 16.3566L13.7912 19.4342C13.7912 19.8847 14.2022 20.25 14.7092 20.25Z"
        fill="currentColor" />
    <path
        d="M20.7429 3.99976L14.5071 3.99976C13.9854 3.99976 13.5625 4.32809 13.5625 4.73312L13.5625 12.2039C13.5625 12.6089 13.9854 12.9373 14.5071 12.9373L20.7429 12.9373C21.2646 12.9373 21.6875 12.6089 21.6875 12.2039L21.6875 4.73312C21.6875 4.32809 21.2646 3.99976 20.7429 3.99976Z"
        fill="currentColor" />
</svg>