<svg width="24" height="24" viewBox="0 0 24 24" fill="currentColor" xmlns="http://www.w3.org/2000/svg">
    <path
        d="M22.721 8.28997L12.9801 3.24266C12.3621 2.91911 11.6334 2.91911 11.0153 3.24266L1.27447 8.28997C0.905493 8.48409 0.905493 9.02026 1.29291 9.20514L11.0799 13.9104C11.661 14.1877 12.3436 14.1877 12.934 13.9104L22.721 9.20514C23.0992 9.02026 23.1084 8.48409 22.7395 8.28997H22.721Z"
        fill="currentColor" />
    <path
        d="M20.3226 12.8291L12.9247 16.3881C12.3436 16.6654 11.661 16.6654 11.0706 16.3881L3.64502 12.8198V17.8486C3.64502 17.8486 3.64502 17.8671 3.64502 17.8764C3.64502 19.0596 7.37164 20.0118 11.9654 20.0118C16.5591 20.0118 20.2857 19.0504 20.2857 17.8764C20.2857 17.8671 20.2857 17.8579 20.2857 17.8486H20.3226V12.8383V12.8291Z"
        fill="currentColor" />
</svg>