<svg width="24" height="24" viewBox="0 0 24 24" fill="currentColor" xmlns="http://www.w3.org/2000/svg">
    <path
        d="M8.53982 12.6614C10.3632 12.6614 11.8414 11.1833 11.8414 9.35989C11.8414 7.5365 10.3632 6.05835 8.53982 6.05835C6.71643 6.05835 5.23828 7.5365 5.23828 9.35989C5.23828 11.1833 6.71643 12.6614 8.53982 12.6614Z"
        fill="currentColor" />
    <path
        d="M12.1927 22.1252H4.4455C3.75087 22.1252 3.13796 21.6594 2.95 20.9893L2.12461 18.0637C1.53622 15.9716 3.10527 13.9041 5.27906 13.9041H11.3673C13.5411 13.9041 15.1101 15.9798 14.5217 18.0637L13.6964 20.9893C13.5084 21.6594 12.8955 22.1252 12.2009 22.1252H12.1927Z"
        fill="currentColor" />
    <path
        d="M15.1674 7.60308C16.9908 7.60308 18.4689 6.12493 18.4689 4.30154C18.4689 2.47815 16.9908 1 15.1674 1C13.344 1 11.8658 2.47815 11.8658 4.30154C11.8658 6.12493 13.344 7.60308 15.1674 7.60308Z"
        fill="currentColor" />
    <path
        d="M17.9949 9.65381H13.443C13.4594 9.82542 13.4675 9.99704 13.4675 10.1687C13.4675 11.0104 13.2551 11.8113 12.8792 12.5059C13.8189 12.8083 14.6607 13.3885 15.2818 14.2057C16.0908 15.2681 16.4177 16.5838 16.2216 17.875H18.8285C19.5231 17.875 20.136 17.4092 20.324 16.739L21.1494 13.8134C21.7377 11.7214 20.1687 9.65381 17.9949 9.65381Z"
        fill="currentColor" />
</svg>