<svg width="24" height="24" viewBox="0 0 24 24" fill="currentColor"
    xmlns="http://www.w3.org/2000/svg">
    <path
        d="M19.6782 3H5.32184C4.0376 3 3 4.0376 3 5.32184V14.0479C3.85049 13.427 4.91361 12.6361 6.23187 11.6495C7.43957 10.748 9.10654 10.6799 10.3823 11.4964L14.4731 14.0989C15.1025 14.4987 15.9105 14.5072 16.5483 14.1159L22 10.782V5.32184C22 4.0376 20.9624 3 19.6782 3ZM15.4597 11.5389C13.5971 11.5389 12.0918 10.0336 12.0918 8.17099C12.0918 6.30842 13.5971 4.80304 15.4597 4.80304C17.3223 4.80304 18.8277 6.30842 18.8277 8.17099C18.8277 10.0336 17.3223 11.5389 15.4597 11.5389Z"
        fill="currentColor" />
    <path
        d="M17.4329 15.5617C16.2507 16.2846 14.7283 16.2761 13.5631 15.5277L9.47225 12.9252C8.79185 12.4914 7.89884 12.5255 7.25246 13.0102C5.27932 14.4816 3.93554 15.4767 3 16.1571V19.6696C3 20.9538 4.0376 21.9914 5.32184 21.9914H19.6782C20.9624 21.9914 22 20.9538 22 19.6696V12.7636L17.4414 15.5532L17.4329 15.5617Z"
        fill="currentColor" />
</svg>