<svg width="1.5em" height="1.5em" viewBox="0 0 24 24" fill="none" xmlns="http://www.w3.org/2000/svg">
  <path fill-rule="evenodd" clip-rule="evenodd" d="M8.30612 4.32259C8.70284 4.92388 8.537 5.73293 7.93571 6.12964C5.92853 7.45394 4.6087 9.72533 4.6087 12.3044C4.6087 16.3865 7.9179 19.6957 12 19.6957C16.0821 19.6957 19.3913 16.3865 19.3913 12.3044C19.3913 9.72533 18.0715 7.45394 16.0643 6.12964C15.463 5.73293 15.2972 4.92388 15.6939 4.32259C16.0906 3.7213 16.8996 3.55546 17.5009 3.95218C20.2087 5.73873 22 8.81205 22 12.3044C22 17.8272 17.5228 22.3044 12 22.3044C6.47715 22.3044 2 17.8272 2 12.3044C2 8.81205 3.79127 5.73873 6.49907 3.95218C7.10036 3.55546 7.9094 3.7213 8.30612 4.32259Z" fill="currentColor"/>
  <path fill-rule="evenodd" clip-rule="evenodd" d="M12 9.69565C11.2797 9.69565 10.6957 9.11167 10.6957 8.3913V2.30434C10.6957 1.58398 11.2796 1 12 1C12.7204 1 13.3044 1.58398 13.3044 2.30434V8.3913C13.3044 9.11167 12.7204 9.69565 12 9.69565Z" fill="currentColor"/>
</svg>
