<svg width="24" height="24" viewBox="0 0 24 24" fill="currentColor" xmlns="http://www.w3.org/2000/svg">
    <g clip-path="url(#clip0_20_805)">
        <path
            d="M19.7768 5.00048H21.7143L19.1697 2.41699V4.38407C19.1697 4.72854 19.4465 5.00048 19.7768 5.00048Z"
            fill="currentColor" />
        <path
            d="M18.4643 6.73187C17.8482 6.73187 17.3482 6.22424 17.3482 5.59876V2H5.99107C5.375 2 4.875 2.50763 4.875 3.13311V9.55105H16.6964C17.8214 9.55105 18.7321 10.4757 18.7321 11.6178V15.3073C18.7321 16.4494 17.8214 17.374 16.6964 17.374H4.875V19.8578C4.875 20.4833 5.375 20.9909 5.99107 20.9909H20.8929C21.5089 20.9909 22.0089 20.4833 22.0089 19.8578V6.73187H18.4643Z"
            fill="currentColor" />
        <path
            d="M9.48218 12.4065C8.87504 12.4065 8.48218 12.8325 8.48218 13.5124C8.48218 14.1923 8.86611 14.6183 9.48218 14.6183C10.0982 14.6183 10.4732 14.1741 10.4732 13.5124C10.4732 12.8507 10.0804 12.4065 9.48218 12.4065Z"
            fill="currentColor" />
        <path
            d="M16.6964 10.4575H4.14286C3.50893 10.4575 3 10.9742 3 11.6178V15.3072C3 15.9508 3.50893 16.4675 4.14286 16.4675H16.6964C17.3304 16.4675 17.8393 15.9508 17.8393 15.3072V11.6178C17.8393 10.9742 17.3304 10.4575 16.6964 10.4575ZM7.19643 15.4341H5.08036V11.6178H6V14.718H7.19643V15.4341ZM9.49107 15.4704C8.42857 15.4704 7.55357 14.6636 7.55357 13.5124C7.55357 12.3611 8.41964 11.5634 9.49107 11.5634C10.5625 11.5634 11.4107 12.3702 11.4107 13.5124C11.4107 14.6546 10.5536 15.4704 9.49107 15.4704ZM15.5714 14.1469C15.375 14.8087 14.75 15.4613 13.7589 15.4613C12.6339 15.4613 11.8393 14.6636 11.8393 13.5215C11.8393 12.3793 12.625 11.5725 13.75 11.5725C14.6518 11.5725 15.3036 12.0439 15.5 12.8235H14.4911C14.3482 12.5696 14.0982 12.4337 13.75 12.4337C13.1607 12.4337 12.7679 12.8597 12.7679 13.5215C12.7679 14.2285 13.1607 14.6455 13.8214 14.6455C14.2768 14.6455 14.5893 14.4007 14.7321 13.9747H13.5714V13.2858H15.5625V14.1469H15.5714Z"
            fill="currentColor" />
    </g>
    <defs>
        <clipPath id="clip0_20_805">
            <rect width="19" height="19" fill="white" transform="translate(3 2)" />
        </clipPath>
    </defs>
</svg>