<svg width="24" height="24" viewBox="0 0 24 24" fill="currentColor"
    xmlns="http://www.w3.org/2000/svg">
    <g clip-path="url(#clip0_20_799)">
        <path fill-rule="evenodd" clip-rule="evenodd"
            d="M13.8792 1H10.0292C9.57353 1 9.20416 1.35258 9.20416 1.7875V5.4625C9.20416 5.89742 9.57353 6.25 10.0292 6.25H11.2667V9.14628H12.6417V6.25H13.8792C14.3348 6.25 14.7042 5.89742 14.7042 5.4625V1.7875C14.7042 1.35258 14.3348 1 13.8792 1ZM2.94336 16.75H1.825C1.36937 16.75 1 17.1026 1 17.5375V21.2125C1 21.6474 1.36937 22 1.825 22H5.675C6.13063 22 6.5 21.6474 6.5 21.2125V17.5375C6.5 17.1026 6.13063 16.75 5.675 16.75H4.31836V13.0488C4.31836 12.62 4.68503 12.27 5.13419 12.27H9.47003V10.9575H5.13419C3.92419 10.9575 2.94336 11.8938 2.94336 13.0488V16.75ZM22.175 16.75H20.9375V12.5938C20.9375 11.6925 20.1675 10.9575 19.2234 10.9575H14.53V12.27H19.2234C19.4067 12.27 19.5625 12.41 19.5625 12.5938V16.75H18.325C17.8694 16.75 17.5 17.1026 17.5 17.5375V21.2125C17.5 21.6474 17.8694 22 18.325 22H22.175C22.6306 22 23 21.6474 23 21.2125V17.5375C23 17.1026 22.6306 16.75 22.175 16.75ZM12.6417 16.75H13.8792C14.3348 16.75 14.7042 17.1026 14.7042 17.5375V21.2125C14.7042 21.6474 14.3348 22 13.8792 22H10.0292C9.57353 22 9.20416 21.6474 9.20416 21.2125V17.5375C9.20416 17.1026 9.57353 16.75 10.0292 16.75H11.2667V13.9675H12.6417V16.75ZM10.6709 9.82872H13.2467C13.4998 9.82872 13.705 10.0246 13.705 10.2662V12.725C13.705 12.9666 13.4998 13.1625 13.2467 13.1625H10.6709C10.4177 13.1625 10.2125 12.9666 10.2125 12.725V10.2662C10.2125 10.0246 10.4177 9.82872 10.6709 9.82872Z"
            fill="currentColor" />
    </g>
    <defs>
        <clipPath id="clip0_20_799">
            <rect width="22" height="21" fill="currentColor" transform="translate(1 1)" />
        </clipPath>
    </defs>
</svg>