<svg width="24" height="24" viewBox="0 0 24 24" fill="currentColor" xmlns="http://www.w3.org/2000/svg">
    <path
        d="M9.58129 12.6904H3.72829C2.77506 12.6904 2 13.4655 2 14.4187V20.2717C2 21.225 2.77506 22 3.72829 22H9.58129C10.5345 22 11.3096 21.225 11.3096 20.2717V14.4187C11.3096 13.4655 10.5345 12.6904 9.58129 12.6904ZM8.96659 18.2405H7.46993V19.7372C7.46993 20.1915 7.10468 20.5568 6.65033 20.5568C6.19599 20.5568 5.83074 20.1915 5.83074 19.7372V18.2405H4.33408C3.87973 18.2405 3.51448 17.8753 3.51448 17.4209C3.51448 16.9666 3.87973 16.6013 4.33408 16.6013H5.83074V15.1047C5.83074 14.6503 6.19599 14.2851 6.65033 14.2851C7.10468 14.2851 7.46993 14.6503 7.46993 15.1047V16.6013H8.96659C9.42094 16.6013 9.78619 16.9666 9.78619 17.4209C9.78619 17.8753 9.42094 18.2405 8.96659 18.2405Z"
        fill="currentColor" />
    <path
        d="M9.58129 2H3.72829C2.77506 2 2 2.77506 2 3.72829V9.58129C2 10.5345 2.77506 11.3096 3.72829 11.3096H9.58129C10.5345 11.3096 11.3096 10.5345 11.3096 9.58129V3.72829C11.3096 2.77506 10.5345 2 9.58129 2ZM8.96659 7.55011H4.33408C3.87973 7.55011 3.51448 7.18485 3.51448 6.73051C3.51448 6.27617 3.87973 5.91091 4.33408 5.91091H8.96659C9.42094 5.91091 9.78619 6.27617 9.78619 6.73051C9.78619 7.18485 9.42094 7.55011 8.96659 7.55011Z"
        fill="currentColor" />
    <path
        d="M20.0935 2.07141H14.2405C13.2873 2.07141 12.5122 2.84646 12.5122 3.79969V20.2719C12.5122 21.2251 13.2873 22.0001 14.2405 22.0001H20.0935C21.0467 22.0001 21.8218 21.2251 21.8218 20.2719V3.79078C21.8218 2.83756 21.0467 2.0625 20.0935 2.0625V2.07141ZM19.4788 15.3186H14.8463C14.3919 15.3186 14.0267 14.9534 14.0267 14.499C14.0267 14.0447 14.3919 13.6794 14.8463 13.6794H19.4788C19.9331 13.6794 20.2984 14.0447 20.2984 14.499C20.2984 14.9534 19.9331 15.3186 19.4788 15.3186ZM19.4788 11.7551H14.8463C14.3919 11.7551 14.0267 11.3899 14.0267 10.9356C14.0267 10.4812 14.3919 10.116 14.8463 10.116H19.4788C19.9331 10.116 20.2984 10.4812 20.2984 10.9356C20.2984 11.3899 19.9331 11.7551 19.4788 11.7551Z"
        fill="currentColor" />
</svg>
