<svg width="24" height="24" viewBox="0 0 24 24" fill="currentColor"
    xmlns="http://www.w3.org/2000/svg">
    <g clip-path="url(#clip0_20_803)">
        <path
            d="M22.0478 15.1597C21.3649 10.4201 17.298 6.78137 12.375 6.78137C7.45192 6.78137 3.38506 10.4303 2.70215 15.1597H22.058H22.0478Z"
            fill="currentColor" />
        <path
            d="M19.9686 21.1428H4.7815C3.86416 21.1428 3.00798 20.7249 2.44738 20.0012L1.08157 18.2277C0.877714 17.9627 1.06118 17.5856 1.39754 17.5856H23.3525C23.6787 17.5856 23.8621 17.9627 23.6685 18.2277L22.3027 19.991C21.7421 20.7147 20.8859 21.1326 19.9686 21.1326V21.1428Z"
            fill="currentColor" />
    </g>
    <path
        d="M12.3751 4.75314C12.9357 4.75314 13.4861 4.8041 14.0263 4.89583C14.0263 4.82448 14.0467 4.75314 14.0467 4.6716C14.0467 3.74406 13.2924 3 12.3751 3C11.4577 3 10.7035 3.75426 10.7035 4.6716C10.7035 4.74294 10.7137 4.81429 10.7239 4.89583C11.2641 4.8041 11.8145 4.75314 12.3751 4.75314Z"
        fill="currentColor" />
    <defs>
        <clipPath id="clip0_20_803">
            <rect width="22.75" height="17.1237" fill="currentColor" transform="translate(1 4.01917)" />
        </clipPath>
    </defs>
</svg>