<svg width="24" height="24" viewBox="0 0 24 24" fill="currentColor"
    xmlns="http://www.w3.org/2000/svg">
    <path
        d="M12 22C6.48243 22 2 17.5081 2 12C2 6.49193 6.48243 2 12 2C17.5176 2 22 6.48243 22 12C22 17.5176 17.5176 22 12 22ZM7.4416 13.6144C6.8528 13.9848 6.67236 14.7635 7.04274 15.3523C7.27066 15.7227 7.67901 15.9411 8.11586 15.9411C8.35328 15.9411 8.59069 15.8746 8.79012 15.7512L12.4368 13.4625C12.8072 13.2251 13.0256 12.8262 13.0256 12.3894V6.8718C13.0256 6.17854 12.4558 5.60874 11.7626 5.60874C11.0693 5.60874 10.4995 6.17854 10.4995 6.8718V11.6961L7.4416 13.6144Z"
        fill="currentColor" />
</svg>