<svg width="24" height="24" viewBox="0 0 24 24" fill="currentColor"
    xmlns="http://www.w3.org/2000/svg">
    <path
        d="M18.8004 3H5.19964C3.98299 3 3 3.98299 3 5.19964V18.8004C3 20.017 3.98299 21 5.19964 21H18.8004C20.017 21 21 20.017 21 18.8004V5.19964C21 3.98299 20.017 3 18.8004 3ZM17.7851 9.64727L12.0483 16.3429C11.8066 16.6249 11.4682 16.7619 11.1298 16.7619C10.8559 16.7619 10.5819 16.6732 10.3563 16.4879L6.51298 13.3053C5.99731 12.8782 5.9248 12.1209 6.35184 11.6052C6.77887 11.0895 7.53626 11.017 8.05192 11.444L10.9767 13.8693L15.94 8.0761C16.3751 7.56849 17.1406 7.51209 17.6401 7.94718C18.1477 8.38227 18.2041 9.14772 17.769 9.64727H17.7851Z"
        fill="currentColor" />
</svg>