<svg xmlns="http://www.w3.org/2000/svg" width="1706" height="900" fill="none"
    xmlns:v="https://vecta.io/nano">
    <path fill="#303946" d="M206 33h1280v778H206z" />
    <path fill="#203965" d="M203-1h1503v901H203z" />
    <path d="M190 900V0H467.586L1321 900H190Z" fill="#213d6a" />
    <path d="M0 900V0h279l855 900H0z" fill="#234171" />
    <path
        d="M1375.35 467.809l35.46 75.859 2.25 4.727c5.92 13.747 2.03 19.641-13.04 19.656h-80.83c-2.19 0-4.37.24-7.31.419l6.31 29.59 26.8 121.857c1.41 6.343 1.64 12.132-4.99 15.528-6.37 3.261-10.78-.434-14.99-4.817l-245.73-255.563c-5.03-5.236-10.09-7.435-17.47-7.42l-255.943.149c-9.41 0-15.966-4.452-19.668-13.358-32.99-79.434.973-176.729 76.413-215.682 12.02-6.209 17.513-12.925 20.102-26.149 10.044-51.161 53.751-92.912 105.587-101.633 13.109-2.199 26.749-1.122 40.119-1.975 3.08-.194 7.02-1.182 8.95-3.291 48.66-52.881 125.76-60.435 182.77-17.428 4.4 3.321 6.84 3.456 11.29.03 55.68-42.873 134.83-35.334 182.22 16.86 2.1 2.303 6.44 4.128 9.45 3.784 59.66-6.956 122.87 29.066 143.37 93.69 2.39 7.554 3.27 15.573 5.38 23.247.66 2.408 2.56 5.4 4.7 6.372 57.05 25.775 88.72 70.907 99.08 131.402 5.67 33.12 1.05 65.567-12.59 96.532-2.78 6.313-7.57 7.659-13.88 7.644l-199.81-.03c-21.96 0-43.9-.015-65.86-.029h-8.12l-.02.029zm159.74-21.436c2.43-21.766-5.46-37.009-22.94-47.72-7.13-4.368-8.91-10.531-5.39-16.321 3.24-5.34 9.43-6.223 16.43-2.019 12.26 7.36 22.78 16.814 27.62 30.442 3.92 11.04 5.64 22.858 8.65 35.633h6.33l71.09.224c7.18.18 10.02-2.408 11.97-8.751 13.46-43.816 9.43-86.016-13.55-125.523-20.26-34.84-48.82-59.942-90.42-65.641-31.04-4.248-59.74 1.69-82.92 24.488-5.99 5.894-10.77 13.03-16.02 19.657-4.42 5.564-9.79 6.926-14.97 3.605-5.37-3.441-6.61-9.664-2.68-15.707 18.61-28.498 43.84-47.646 78.06-52.642 13.89-2.034 28.16-1.586 42.51-2.274 0-.837.21-2.318-.03-3.725-7.74-45.341-50.83-85.312-96.59-89.426-44.87-4.024-82.83 11.384-114.61 42.335-23.26 22.648-37.35 50.756-45.55 81.976-2.03 7.734-6.94 10.861-13.66 9.125-5.68-1.466-8.97-7.015-7.13-13.553 16.18-57.443 47.78-102.56 103.4-128.215 5.79-2.663 11.9-4.638 18.1-7.031-41.63-44.279-114.37-42.14-150.06-7.854 6.41 14.062 13.65 27.226 18.35 41.243 3.34 9.933 3.79 21.003 4.46 31.624.39 6.193-3.78 10.352-10.36 10.352-6.46 0-10.04-3.71-10.58-10.203l-.69-8.945c-1.6-18.4-8.26-34.855-19.56-49.321-32.26-41.347-95.75-52.642-142.12-25.161-8.31 4.921-15.84 11.144-24.79 17.532 3.04 1.421 3.88 1.93 4.79 2.244 44.07 14.75 76.26 43.726 97.92 84.116 8.4 15.662 13.91 32.94 20.07 49.724 2.44 6.612-1.43 12.356-7.63 13.822-6.11 1.437-10.79-1.555-12.9-8.287-.6-1.9-.93-3.874-1.51-5.789-18.61-60.585-55.28-102.935-119.15-117.774-45.461-10.562-93.06 8.063-119.224 46.717-9.296 13.733-15.642 28.617-17.768 45.836l7.305-.524c23.785-1.825 46.776.748 68.36 11.803 19.399 9.933 34.267 24.698 45.847 42.903 3.64 5.714 2.26 11.818-2.75 15.169-5.14 3.425-10.68 2.214-15-3.351-.91-1.182-1.71-2.454-2.53-3.71-32.033-49.171-92.206-48.722-125.6-32.596-67.073 32.386-99.838 115.186-74.108 185.509 1.602 4.398 3.667 6.178 8.517 6.119l63.615-.12h20.163c.673-1.107.898-1.302.898-1.511l.164-5.954c.943-25.625 12.199-45.281 34.188-58.64 6.736-4.099 13.052-3.276 16.54 1.96 3.577 5.37 1.856 11.384-4.596 15.916-1.422 1.002-3.008 1.78-4.43 2.798-12.364 8.766-19.294 20.584-19.953 35.842-.404 9.454-.284 9.589 9.236 9.589h237.236 8.24c-1.25-2.857-2.05-4.877-3.01-6.807l-37.82-76.367c-5.78-11.728-1.29-18.669 11.97-18.773h5.24l152.66-.285c12.11-.164 17.85 4.593 22.43 14.96 11.97 27.106 24.95 53.778 37.25 80.75 2.31 5.041 5.21 6.701 10.77 6.671l153.41-.149h8.78l.03-.015zM1387.28 546.63c-.09-1.511.09-2.349-.19-2.962l-80.52-172.735c-1.91-4.143-4.59-5.101-8.76-5.086l-133.96.165c-1.62 0-3.25.419-5.33.703.7 1.705 1.09 2.842 1.62 3.919l38.29 76.966c7.06 14.211 3.18 20.314-12.94 20.314l-74.09.015c-2.59 0-5.19.21-9.25.389l214.26 222.504-1.71-9.35-25.85-117.49c-2.79-12.685.9-17.263 13.9-17.322l62.12-.03h22.41z"
        fill="#375fa4" fill-opacity=".15" />
</svg>