<svg width="0.25em" height="1em" viewBox="0 0 3.65 16" fill="currentColor" xmlns="http://www.w3.org/2000/svg">
    <path
        d="M1.84615 3.69231C2.08848 3.6922 2.32842 3.64434 2.55226 3.55146C2.7761 3.45858 2.97947 3.3225 3.15074 3.15099C3.32202 2.97948 3.45785 2.7759 3.55049 2.55187C3.64312 2.32784 3.69074 2.08776 3.69063 1.84531C3.69052 1.60287 3.64268 1.36283 3.54984 1.13889C3.45701 0.914943 3.32099 0.711486 3.14956 0.540133C2.97813 0.368779 2.77464 0.232885 2.55071 0.140209C2.32679 0.047533 2.08681 -0.000110009 1.84448 1.90736e-07C1.35507 0.000222757 0.885794 0.194941 0.539887 0.541319C0.193981 0.887698 -0.000222267 1.35736 1.90908e-07 1.84699C0.000222649 2.33662 0.194852 2.80611 0.541074 3.15218C0.887295 3.49824 1.35675 3.69253 1.84615 3.69231Z"
        fill="currentColor" />
    <path
        d="M1.84615 9.84612C2.08848 9.84601 2.32842 9.79814 2.55226 9.70527C2.7761 9.61239 2.97947 9.47631 3.15074 9.3048C3.32202 9.13329 3.45785 8.92971 3.55049 8.70568C3.64312 8.48165 3.69074 8.24156 3.69063 7.99912C3.69052 7.75668 3.64268 7.51664 3.54984 7.29269C3.45701 7.06875 3.32099 6.86529 3.14956 6.69394C2.97813 6.52259 2.77464 6.38669 2.55071 6.29402C2.32679 6.20134 2.08681 6.1537 1.84448 6.15381C1.35507 6.15403 0.885794 6.34875 0.539887 6.69513C0.193981 7.04151 -0.000222267 7.51117 1.90908e-07 8.0008C0.000222649 8.49043 0.194852 8.95992 0.541074 9.30598C0.887295 9.65205 1.35675 9.84634 1.84615 9.84612Z"
        fill="currentColor" />
    <path
        d="M1.84615 16C2.08848 15.9999 2.32842 15.9521 2.55226 15.8592C2.7761 15.7663 2.97947 15.6302 3.15074 15.4587C3.32202 15.2872 3.45785 15.0836 3.55049 14.8596C3.64312 14.6356 3.69074 14.3955 3.69063 14.1531C3.69052 13.9106 3.64268 13.6706 3.54984 13.4466C3.45701 13.2227 3.32099 13.0192 3.14956 12.8479C2.97813 12.6765 2.77464 12.5406 2.55071 12.4479C2.32679 12.3553 2.08681 12.3076 1.84448 12.3077C1.35507 12.308 0.885794 12.5027 0.539887 12.8491C0.193981 13.1954 -0.000222267 13.6651 1.90908e-07 14.1547C0.000222649 14.6444 0.194852 15.1139 0.541074 15.4599C0.887295 15.806 1.35675 16.0003 1.84615 16Z"
        fill="currentColor" />
</svg>