<svg width="24" height="24" viewBox="0 0 24 24" fill="none" xmlns="http://www.w3.org/2000/svg">
    <path
        d="M10.1192 18C9.7214 17.9999 9.33991 17.8333 9.0587 17.5366L4.43914 12.6653C4.15796 12.3687 4 11.9672 4 11.5478C4 11.1285 4.15796 10.7262 4.43914 10.4296C4.72041 10.1331 5.1018 9.96628 5.49951 9.96628C5.89722 9.96628 6.2787 10.1331 6.55997 10.4296L10.1192 14.182L17.44 6.46258C17.7213 6.16608 18.1028 6 18.5005 6C18.8982 6 19.2796 6.16608 19.5609 6.46258C19.842 6.75917 20 7.16142 20 7.5808C20 8.00017 19.842 8.40243 19.5609 8.69902L11.1795 17.5366C10.8983 17.8333 10.5169 17.9999 10.1192 18Z"
        fill="currentColor" />
</svg>