<svg width="24" height="24" viewBox="0 0 24 24" fill="none" xmlns="http://www.w3.org/2000/svg">
  <path
    d="M11.9988 13.7112L20.1764 6.46407C20.4876 6.16677 20.9078 6 21.3457 6C21.7836 6 22.2038 6.16677 22.5149 6.46407C22.6686 6.61006 22.7906 6.78407 22.8738 6.97599C22.9571 7.1679 23 7.37388 23 7.58194C23 7.79 22.9571 7.99598 22.8738 8.1879C22.7906 8.37981 22.6686 8.55383 22.5149 8.69982L13.1705 17.5367C12.8586 17.8335 12.4381 18 12 18C11.5619 18 11.1414 17.8335 10.8295 17.5367L1.48507 8.69982C1.33144 8.55383 1.20944 8.37981 1.12616 8.1879C1.04289 7.99598 1 7.79 1 7.58194C1 7.37388 1.04289 7.1679 1.12616 6.97599C1.20944 6.78407 1.33144 6.61006 1.48507 6.46407C1.79623 6.16677 2.21643 6 2.65432 6C3.09222 6 3.51241 6.16677 3.82358 6.46407L11.9988 13.7112Z"
    fill="currentColor" />
</svg>
  