<svg width="24" height="24" viewBox="0 0 24 24" fill="none" xmlns="http://www.w3.org/2000/svg">
  <path d="M12 24C18.6274 24 24 18.6274 24 12C24 5.37258 18.6274 0 12 0C5.37258 0 0 5.37258 0 12C0 18.6274 5.37258 24 12 24Z" fill="currentColor"/>
  <path d="M13.6104 11.521L9.84121 7.41703C9.68659 7.26088 9.59985 7.05 9.59985 6.83023C9.59985 6.61048 9.68659 6.3996 9.84121 6.24343C9.91715 6.16633 10.0076 6.10511 10.1075 6.06331C10.2073 6.02153 10.3144 6 10.4226 6C10.5308 6 10.6379 6.02153 10.7378 6.06331C10.8376 6.10511 10.9281 6.16633 11.004 6.24343L15.6 10.933C15.7544 11.0895 15.841 11.3006 15.841 11.5204C15.841 11.7403 15.7544 11.9513 15.6 12.1079L11.004 16.7975C10.9281 16.8745 10.8376 16.9357 10.7378 16.9776C10.6379 17.0194 10.5308 17.0408 10.4226 17.0408C10.3144 17.0408 10.2073 17.0194 10.1075 16.9776C10.0076 16.9357 9.91715 16.8745 9.84121 16.7975C9.68659 16.6412 9.59985 16.4304 9.59985 16.2107C9.59985 15.9908 9.68659 15.78 9.84121 15.6239L13.6104 11.521Z" fill="white"/>
</svg>
