<svg width="20" height="20" viewBox="0 0 20 20" fill="none" xmlns="http://www.w3.org/2000/svg">
  <path d="M10 20C15.5228 20 20 15.5228 20 10C20 4.47715 15.5228 0 10 0C4.47715 0 0 4.47715 0 10C0 15.5228 4.47715 20 10 20Z" fill="transparent" data-id="rounded" />
  <path fill-rule="evenodd" clip-rule="evenodd" d="M10.5582 13.5582C10.2499 13.8665 9.75012 13.8665 9.44177 13.5582L5.23123 9.34772C4.92292 9.03941 4.92292 8.53954 5.23123 8.23123C5.53954 7.92292 6.03941 7.92292 6.34772 8.23123L10 11.8835L13.6523 8.23123C13.9607 7.92292 14.4604 7.92292 14.7688 8.23123C15.0771 8.53954 15.0771 9.03941 14.7688 9.34772L10.5582 13.5582Z" fill="currentColor"/>
</svg>
