<svg width="24" height="24" viewBox="0 0 24 24" fill="none" xmlns="http://www.w3.org/2000/svg">
  <path
    d="M9.93149 11.7289L16.5749 18.9624C16.8474 19.2376 17.0003 19.6093 17.0003 19.9967C17.0003 20.384 16.8474 20.7557 16.5749 21.0309C16.4411 21.1668 16.2815 21.2747 16.1056 21.3484C15.9297 21.422 15.7409 21.46 15.5501 21.46C15.3594 21.46 15.1706 21.422 14.9947 21.3484C14.8187 21.2747 14.6592 21.1668 14.5254 21.0309L6.42474 12.7653C6.15259 12.4894 6 12.1175 6 11.73C6 11.3425 6.15259 10.9705 6.42474 10.6947L14.5254 2.42906C14.6592 2.29317 14.8187 2.18526 14.9947 2.11159C15.1706 2.03793 15.3594 2 15.5501 2C15.7409 2 15.9297 2.03794 16.1056 2.11159C16.2815 2.18526 16.4411 2.29317 16.5749 2.42906C16.8474 2.70431 17.0003 3.07599 17.0003 3.46332C17.0003 3.85066 16.8474 4.22234 16.5749 4.49758L9.93149 11.7289Z"
    fill="currentColor" />
</svg>