<svg width="24" height="24" viewBox="0 0 24 24" fill="currentColor"
    xmlns="http://www.w3.org/2000/svg">
    <path
        d="M14.6058 8L12.017 10.585L9.43665 8L8.01957 9.415L10.5999 12L8.01113 14.585L9.42359 16L12.0124 13.415L14.5927 16L16.0098 14.585L13.4295 12L16.0183 9.415L14.6058 8ZM12.031 2C6.50692 2 2.02535 6.475 2.01633 12C2.00731 17.525 6.47427 22 11.9984 22C17.5225 22 22.004 17.525 22.0131 12C22.0221 6.475 17.5551 2 12.031 2ZM12.0016 20C7.59235 20 4.0088 16.41 4.016 12C4.0232 7.59 7.61848 4 12.0278 4C16.437 4 20.0206 7.59 20.0134 12C20.0062 16.41 16.4109 20 12.0016 20Z"
        fill="currentColor" />
</svg>