<svg xmlns="http://www.w3.org/2000/svg" width="24" height="24" fill="currentColor"
    xmlns:v="https://vecta.io/nano">
    <path fill-rule="evenodd"
        d="M12 4.739c4.908 0 9.307 2.805 10.947 6.981.048.123.063.252.048.374.015.122 0 .251-.048.374-1.64 4.176-6.04 6.981-10.947 6.981s-9.305-2.805-10.945-6.981L1 12.331v-.475l.054-.137C2.693 7.544 7.092 4.739 12 4.739zm-9.373 7.355c1.463 3.466 5.2 5.781 9.373 5.781s7.911-2.315 9.373-5.781c-.842-1.995-2.439-3.609-4.438-4.619a5.2 5.2 0 0 1 .683 2.582c0 2.933-2.42 5.311-5.406 5.311s-5.406-2.378-5.406-5.311a5.21 5.21 0 0 1 .855-2.861c-2.277.977-4.111 2.706-5.035 4.897zm9.637-.433c1.215 0 2.2-.969 2.2-2.163s-.985-2.163-2.2-2.163-2.2.969-2.2 2.163.985 2.163 2.2 2.163z"
        fill="currentColor" />
</svg>