<svg xmlns="http://www.w3.org/2000/svg" width="24" height="24" fill="currentColor"
    xmlns:v="https://vecta.io/nano">
    <path
        d="M22.939 9.259a.93.93 0 0 0-.524-1.196.91.91 0 0 0-1.182.53c-1.37 3.593-5.08 6.007-9.233 6.007s-7.863-2.414-9.233-6.007a.91.91 0 0 0-1.182-.529.93.93 0 0 0-.524 1.195c.584 1.531 1.518 2.882 2.698 3.989l-1.245 1.261c-.38.385-.38 1.01 0 1.395.19.193.44.289.69.289a.97.97 0 0 0 .69-.289l1.417-1.434c1.677 1.101 3.664 1.792 5.777 1.947v1.597a.98.98 0 0 0 .975.987.98.98 0 0 0 .975-.987v-1.61a12.15 12.15 0 0 0 5.504-1.841l1.323 1.339c.19.192.44.289.69.289a.97.97 0 0 0 .69-.289c.38-.385.38-1.01 0-1.395l-1.13-1.143c1.24-1.127 2.22-2.521 2.825-4.106v.001z"
        fill="currentColor" />
</svg>