<svg width="13" height="13" viewBox="0 0 13 13" fill="currentColor"
    xmlns="http://www.w3.org/2000/svg">
    <path fill-rule="evenodd" clip-rule="evenodd"
        d="M11.9787 2.86369C12.5231 2.32296 12.5231 1.44627 11.9787 0.905545C11.4343 0.364819 10.5516 0.364818 10.0071 0.905544L6.34591 4.54186L2.68469 0.905545C2.14026 0.364819 1.25756 0.364819 0.713132 0.905545C0.168702 1.44627 0.168702 2.32296 0.713132 2.86369L4.37436 6.5L0.713138 10.1363C0.168708 10.677 0.168708 11.5537 0.713138 12.0945C1.25757 12.6352 2.14026 12.6352 2.68469 12.0945L6.34591 8.45814L10.0071 12.0945C10.5516 12.6352 11.4343 12.6352 11.9787 12.0945C12.5231 11.5537 12.5231 10.677 11.9787 10.1363L8.31746 6.5L11.9787 2.86369Z"
        fill="currentColor" />
</svg>
