<svg width="24" height="24" viewBox="0 0 24 24" fill="none" xmlns="http://www.w3.org/2000/svg">
<path d="M13.8689 6.59999L11.0207 9.44349L8.18186 6.59999L6.62282 8.15649L9.46167 11L6.61353 13.8435L8.16749 15.4L11.0156 12.5565L13.8545 15.4L15.4135 13.8435L12.5747 11L15.4228 8.15649L13.8689 6.59999ZM11.0361 0C4.95863 0 0.0280963 4.92249 0.0181742 11C0.00825209 17.0775 4.92272 22 11.0002 22C17.0777 22 22.0083 17.0775 22.0182 11C22.0281 4.92249 17.1136 0 11.0361 0ZM11.0038 19.8C6.15281 19.8 2.21025 15.851 2.21817 11C2.22609 6.14899 6.18154 2.2 11.0325 2.2C15.8835 2.2 19.8261 6.14899 19.8182 11C19.8103 15.851 15.8548 19.8 11.0038 19.8Z" fill="#D53939"/>
</svg>
