<svg width="18" height="18" viewBox="0 0 18 18" fill="currentColor"
    xmlns="http://www.w3.org/2000/svg">
    <rect x="0.5" y="0.5" width="17" height="17" rx="1.5" fill="currentColor" stroke="currentColor" />
    <path
        d="M14.9675 5.67499L13.9295 4.61051C13.8954 4.57549 13.855 4.54769 13.8105 4.52873C13.766 4.50976 13.7182 4.5 13.67 4.5C13.6218 4.5 13.5741 4.50976 13.5296 4.52873C13.4851 4.54769 13.4446 4.57549 13.4106 4.61051L8.10337 10.356L5.06128 7.23507C4.99155 7.16359 4.89699 7.12343 4.79839 7.12343C4.69979 7.12343 4.60523 7.16359 4.5355 7.23507L3.48387 8.31435C3.41416 8.38586 3.375 8.48282 3.375 8.58393C3.375 8.68503 3.41416 8.782 3.48387 8.8535L7.81044 13.3932C7.85039 13.4334 7.89892 13.4634 7.95217 13.481C8.00542 13.4986 8.06194 13.5032 8.11723 13.4945C8.17417 13.5046 8.23265 13.5007 8.28783 13.4831C8.34301 13.4655 8.39332 13.4347 8.43458 13.3932L14.9675 6.20736C15.0363 6.13675 15.075 6.04099 15.075 5.94115C15.075 5.8413 15.0363 5.74561 14.9675 5.67499Z"
        fill="white" />
</svg>
    