<svg width="1em" height="1em" viewBox="0 0 24 24" fill="none" xmlns="http://www.w3.org/2000/svg">
    <path d="M14.36 21.2C13.7262 22.7333 12.3973 23.5 10.3733 23.5C9.33067 23.5 8.48223 23.1423 7.828 22.4267C7.276 21.7929 7 21.1591 7 20.5253C7 18.8693 7.37822 16.4263 8.13467 13.196L9.26933 7.24667C9.26933 7.24667 13.072 9.94916 15.464 7.24667L13.624 16.324C13.2764 17.8369 13.1027 18.8591 13.1027 19.3907C13.1027 20.556 13.5218 21.1591 14.36 21.2ZM9.82133 2.984C9.82133 2.18667 10.1484 1.57333 10.8027 1.144C11.4773 0.714667 12.2951 0.5 13.256 0.5C14.2169 0.5 14.9836 0.714667 15.556 1.144C16.1489 1.57333 16.4453 2.18667 16.4453 2.984C16.4453 3.78133 16.1182 4.38444 15.464 4.79333C14.8302 5.20223 14.0329 5.40667 13.072 5.40667C12.1111 5.40667 11.324 5.20223 10.7107 4.79333C10.1178 4.38444 9.82133 3.78133 9.82133 2.984Z" fill="currentColor"/>
</svg>
