<svg width="1em" height="1em" viewBox="0 0 24 24" fill="none" xmlns="http://www.w3.org/2000/svg">
    <path fill-rule="evenodd" clip-rule="evenodd" d="M0 3.64286C0 2.73553 0.735532 2 1.64286 2H21.3571C22.2645 2 23 2.73553 23 3.64286C23 4.55018 22.2645 5.28571 21.3571 5.28571H1.64286C0.735532 5.28571 0 4.55018 0 3.64286Z" fill="currentColor"/>
    <path fill-rule="evenodd" clip-rule="evenodd" d="M0 11.8571C0 10.9498 0.735532 10.2143 1.64286 10.2143H17.25C18.1573 10.2143 18.8929 10.9498 18.8929 11.8571C18.8929 12.7645 18.1573 13.5 17.25 13.5H1.64286C0.735532 13.5 0 12.7645 0 11.8571Z" fill="currentColor"/>
    <path fill-rule="evenodd" clip-rule="evenodd" d="M0 20.0714C0 19.1641 0.735532 18.4286 1.64286 18.4286H11.5C12.4073 18.4286 13.1429 19.1641 13.1429 20.0714C13.1429 20.9788 12.4073 21.7143 11.5 21.7143H1.64286C0.735532 21.7143 0 20.9788 0 20.0714Z" fill="currentColor"/>
</svg>
