<svg width="15" height="9" viewBox="0 0 15 9" fill="none" xmlns="http://www.w3.org/2000/svg">
    <path
        d="M0 4.5C0 4.67082 0.0658481 4.83465 0.183058 4.95543C0.300269 5.07622 0.45924 5.14408 0.625 5.14408H12.8663L10.1838 7.90847C10.0699 8.02995 10.0069 8.19264 10.0083 8.36152C10.0098 8.53039 10.0755 8.69194 10.1914 8.81135C10.3072 8.93077 10.464 8.99851 10.6279 8.99998C10.7917 9.00144 10.9496 8.93652 11.0675 8.8192L14.8175 4.95472C14.8753 4.89547 14.9212 4.82502 14.9525 4.74742C14.9839 4.66983 15 4.58662 15 4.50258V4.5C15 4.41627 14.9838 4.33254 14.9513 4.25396C14.9201 4.17588 14.8742 4.10494 14.8162 4.04528L11.0662 0.180801C10.9484 0.0634765 10.7905 -0.00144314 10.6266 2.43479e-05C10.4628 0.00149183 10.306 0.0692289 10.1901 0.188647C10.0742 0.308064 10.0085 0.469608 10.0071 0.638483C10.0057 0.807359 10.0687 0.970055 10.1825 1.09153L12.8663 3.85592H0.625C0.45924 3.85592 0.300269 3.92378 0.183058 4.04457C0.0658481 4.16536 0 4.32918 0 4.5Z"
        fill="currentColor" />
</svg>