<svg width="17" height="17" viewBox="0 0 17 17" fill="none" xmlns="http://www.w3.org/2000/svg">
<g clip-path="url(#clip0_257_592)">
<path d="M13.8729 0.829072C13.8729 0.370265 13.4993 0 13.0363 0H3.96367C3.5007 0 3.12708 0.370265 3.12708 0.829072V4.58807H13.8729V0.829072Z" fill="currentColor"/>
<path d="M14.2628 5.73914H2.73722C1.22647 5.73914 0 6.95457 0 8.45173V12.1544C0 13.1686 0.828476 13.9896 1.85189 13.9896H2.7291V15.0441C2.7291 16.1227 3.61443 17 4.70282 17H12.3134C13.4018 17 14.2871 16.1227 14.2871 15.0441V13.9896H15.1644C16.1878 13.9896 17.0162 13.1686 17.0162 12.1544V8.45173C17.0162 6.95457 15.7898 5.73914 14.279 5.73914H14.2628ZM13.4668 15.0441C13.4668 15.6799 12.947 16.1951 12.3053 16.1951H4.6947C4.05303 16.1951 3.53321 15.6799 3.53321 15.0441V11.6714H13.4668V15.0441Z" fill="currentColor"/>
</g>
<defs>
<clipPath id="clip0_257_592">
<rect width="17" height="17" fill="currentColor"/>
</clipPath>
</defs>
</svg>
