<svg width="16" height="17" viewBox="0 0 16 17" fill="none" xmlns="http://www.w3.org/2000/svg">
  <path d="M14.4526 9.67641C14.5225 9.29201 14.5657 8.90097 14.5657 8.49669C14.5657 8.05263 14.5192 7.61852 14.436 7.19766L15.7169 6.05439C15.9398 5.85556 16.0063 5.54074 15.8932 5.26569C15.5805 4.51014 15.1646 3.81092 14.6622 3.1846C14.4759 2.95263 14.1665 2.85984 13.8837 2.95595L12.2535 3.5193C11.6247 2.98577 10.8928 2.56823 10.091 2.30312L9.73501 0.623002C9.67512 0.334698 9.43558 0.115984 9.13948 0.0762183C8.76686 0.0265107 8.38426 0 7.99834 0C7.55918 0 7.13 0.0331384 6.71081 0.0961014C6.41471 0.142495 6.17849 0.361209 6.12193 0.652826L5.79589 2.34288C5.00075 2.62456 4.2788 3.05205 3.65999 3.59883L2.0198 3.0653C1.73701 2.97251 1.4276 3.07193 1.24795 3.30721C0.755559 3.94347 0.349671 4.64932 0.050245 5.4115C-0.0595444 5.68986 0.0136485 6.00468 0.239881 6.19688L1.54737 7.32359C1.47751 7.70799 1.43426 8.09902 1.43426 8.50331C1.43426 8.94737 1.48083 9.38148 1.56401 9.80234L0.283132 10.9456C0.0602259 11.1444 -0.00631318 11.4593 0.106803 11.7343C0.419537 12.4899 0.835406 13.1891 1.33778 13.8154C1.52409 14.0474 1.83349 14.1402 2.11628 14.0441L3.74649 13.4807C4.37528 14.0142 5.10721 14.4318 5.90901 14.6969L6.26499 16.377C6.32488 16.6653 6.56442 16.884 6.86052 16.9238C7.23314 16.9735 7.61574 17 8.00166 17C8.44082 17 8.87 16.9669 9.28919 16.9039C9.58529 16.8575 9.82151 16.6388 9.87807 16.3472L10.2041 14.6571C10.9992 14.3754 11.7212 13.948 12.34 13.4012L13.9802 13.9347C14.263 14.0275 14.5724 13.9281 14.7521 13.6928C15.2444 13.0565 15.6503 12.3507 15.9498 11.5885C16.0595 11.3101 15.9864 10.9953 15.7601 10.8031L14.4526 9.67641ZM8.54728 11.6846C6.32488 12.0491 4.43184 10.1602 4.79781 7.9499C5.01739 6.61111 6.10197 5.5308 7.44939 5.30877C9.67179 4.94425 11.5648 6.83314 11.1989 9.04347C10.9793 10.3823 9.8947 11.4626 8.54728 11.6846Z" fill="currentColor"/>
</svg>
