<svg width="31" height="20" viewBox="0 0 31 20" fill="none" xmlns="http://www.w3.org/2000/svg">
  <path fill-rule="evenodd" clip-rule="evenodd" d="M16.8232 7.46882C16.2967 8.0073 16.2967 8.87644 16.8232 9.41492C17.355 9.95879 18.2212 9.95879 18.753 9.41492L22.3543 5.73157V17.619C22.3543 18.3726 22.9541 19 23.7141 19C24.4741 19 25.0738 18.3726 25.0738 17.619V5.73157L28.6752 9.41492C29.2069 9.95879 30.0732 9.95879 30.6049 9.41492C31.1314 8.87644 31.1314 8.0073 30.6049 7.46882L24.679 1.4079C24.1472 0.864032 23.281 0.864032 22.7492 1.4079L16.8232 7.46882ZM15.1766 12.5312C15.7031 11.9927 15.7031 11.1236 15.1766 10.5851C14.6448 10.0412 13.7786 10.0412 13.2468 10.5851L9.64546 14.2684V2.38095C9.64546 1.62742 9.04573 1 8.28571 1C7.5257 1 6.92597 1.62742 6.92597 2.38095V14.2684L3.32463 10.5851C2.79287 10.0412 1.92663 10.0412 1.39487 10.5851C0.868377 11.1236 0.868377 11.9927 1.39487 12.5312L7.32084 18.5921C7.8526 19.136 8.71883 19.136 9.25059 18.5921L15.1766 12.5312Z" fill="currentColor"/>
</svg>
