<svg width="24" height="24" viewBox="0 0 24 24" fill="none" xmlns="http://www.w3.org/2000/svg">
<path d="M5.78872 15.4622C3.15439 15.4622 1 13.3184 1 10.6734C1 8.66836 2.22651 6.91925 4.08227 6.21534C4.43423 3.26105 6.94058 1 9.94819 1C11.6013 1 13.1798 1.70391 14.3103 2.94109C14.5983 2.88776 14.8756 2.85576 15.1422 2.85576C17.2326 2.85576 19.0564 4.21026 19.6856 6.18334C21.584 6.86592 22.8426 8.63636 22.8426 10.6628C22.8426 13.2224 20.8375 15.3128 18.2671 15.4302C18.2458 15.4302 5.86338 15.4515 5.78872 15.4515V15.4622ZM9.94819 2.06653C7.38852 2.06653 5.26612 4.08227 5.11681 6.64195L5.09548 7.01524L4.73286 7.12189C3.13306 7.59116 2.06653 9.02031 2.06653 10.6734C2.06653 12.7212 3.73032 14.3956 5.78872 14.3956C5.87405 14.3956 18.2458 14.3743 18.2458 14.3743C20.2189 14.289 21.776 12.6572 21.776 10.6734C21.776 9.02031 20.6988 7.59116 19.099 7.12189L18.8111 7.03657L18.7364 6.73794C18.3205 5.08481 16.838 3.92229 15.1422 3.92229C14.8649 3.92229 14.5769 3.96496 14.2463 4.05028L13.9157 4.1356L13.7024 3.86897C12.7638 2.71712 11.3987 2.06653 9.95886 2.06653H9.94819Z" fill="currentColor"/>
<path d="M3.54901 19.5683C3.44236 19.5683 3.3357 19.5363 3.25038 19.4723C3.00508 19.3017 2.94109 18.9711 3.11173 18.7258L4.87151 16.1447C5.03149 15.8994 5.37278 15.8354 5.60741 16.0061C5.85272 16.1767 5.91671 16.5074 5.74606 16.7527L3.98629 19.3337C3.87963 19.483 3.71965 19.5683 3.54901 19.5683Z" fill="currentColor"/>
<path d="M7.63382 19.5683C7.52717 19.5683 7.42052 19.5363 7.3352 19.4723C7.08989 19.3017 7.0259 18.9711 7.19655 18.7258L8.95632 16.1447C9.12697 15.8994 9.45759 15.8354 9.69223 16.0061C9.93753 16.1767 10.0015 16.5074 9.83088 16.7527L8.0711 19.3337C7.96445 19.483 7.80447 19.5683 7.63382 19.5683Z" fill="currentColor"/>
<path d="M11.7186 19.5683C11.612 19.5683 11.5053 19.5363 11.42 19.4723C11.1747 19.3017 11.1107 18.9711 11.2814 18.7258L13.0411 16.1447C13.2118 15.8994 13.5424 15.8354 13.7877 16.0061C14.033 16.1767 14.097 16.5074 13.9264 16.7527L12.1666 19.3337C12.0599 19.483 11.8999 19.5683 11.7293 19.5683H11.7186Z" fill="currentColor"/>
<path d="M15.8034 19.5683C15.6968 19.5683 15.5901 19.5363 15.5048 19.4723C15.2595 19.3017 15.1955 18.9711 15.3662 18.7258L17.1259 16.1447C17.2966 15.8994 17.6272 15.8354 17.8725 16.0061C18.1178 16.1767 18.1818 16.5074 18.0112 16.7527L16.2514 19.3337C16.1447 19.483 15.9848 19.5683 15.8141 19.5683H15.8034Z" fill="currentColor"/>
<path d="M4.1356 22C4.02894 22 3.92229 21.968 3.83697 21.904C3.59166 21.7334 3.52767 21.4027 3.69832 21.1574L5.45809 18.5764C5.62874 18.3311 5.95936 18.2671 6.194 18.4378C6.4393 18.6084 6.50329 18.9391 6.33265 19.1844L4.57287 21.7654C4.46622 21.9147 4.30624 22 4.1356 22Z" fill="currentColor"/>
<path d="M8.22041 22C8.11376 22 8.00711 21.968 7.92178 21.904C7.67648 21.7334 7.61249 21.4027 7.78313 21.1574L9.54291 18.5764C9.71356 18.3311 10.0442 18.2671 10.2788 18.4378C10.5241 18.6084 10.5881 18.9391 10.4175 19.1844L8.65769 21.7654C8.55104 21.9147 8.39106 22 8.22041 22Z" fill="currentColor"/>
<path d="M12.3052 22C12.1986 22 12.0919 21.968 12.0066 21.904C11.7613 21.7334 11.6973 21.4027 11.868 21.1574L13.6277 18.5764C13.7984 18.3311 14.129 18.2778 14.3743 18.4378C14.6196 18.6084 14.6836 18.9391 14.5129 19.1844L12.7532 21.7654C12.6465 21.9147 12.4865 22 12.3159 22H12.3052Z" fill="currentColor"/>
<path d="M16.4007 22C16.2941 22 16.1874 21.968 16.1021 21.904C15.8568 21.7334 15.7928 21.4027 15.9634 21.1574L17.7232 18.5764C17.8938 18.3311 18.2245 18.2778 18.4698 18.4378C18.7151 18.6084 18.7791 18.9391 18.6084 19.1844L16.8486 21.7654C16.742 21.9147 16.582 22 16.4114 22H16.4007Z" fill="currentColor"/>
</svg>
