<svg width="24" height="24" viewBox="0 0 24 24" fill="none" xmlns="http://www.w3.org/2000/svg">
  <path d="M11.57 16.76C8.71 16.76 6.38 14.43 6.38 11.57C6.38 8.71001 8.71 6.38 11.57 6.38C14.43 6.38 16.76 8.71001 16.76 11.57C16.76 14.43 14.43 16.76 11.57 16.76ZM11.57 7.38C9.26 7.38 7.38 9.26001 7.38 11.57C7.38 13.88 9.26 15.76 11.57 15.76C13.88 15.76 15.76 13.88 15.76 11.57C15.76 9.26001 13.88 7.38 11.57 7.38Z" fill="currentColor"/>
  <path d="M21.64 12.07H17.88C17.6 12.07 17.38 11.85 17.38 11.57C17.38 11.29 17.6 11.07 17.88 11.07H21.64C21.92 11.07 22.14 11.29 22.14 11.57C22.14 11.85 21.92 12.07 21.64 12.07Z" fill="currentColor"/>
  <path d="M5.27 12.07H1.5C1.22 12.07 1 11.85 1 11.57C1 11.29 1.22 11.07 1.5 11.07H5.26C5.54 11.07 5.76 11.29 5.76 11.57C5.76 11.85 5.54 12.07 5.26 12.07H5.27Z" fill="currentColor"/>
  <path d="M11.57 22.14C11.29 22.14 11.07 21.92 11.07 21.64V17.88C11.07 17.6 11.29 17.38 11.57 17.38C11.85 17.38 12.07 17.6 12.07 17.88V21.64C12.07 21.92 11.85 22.14 11.57 22.14Z" fill="currentColor"/>
  <path d="M11.57 5.77C11.29 5.77 11.07 5.55 11.07 5.27V1.5C11.07 1.22 11.29 1 11.57 1C11.85 1 12.07 1.22 12.07 1.5V5.26C12.07 5.54 11.85 5.76 11.57 5.76V5.77Z" fill="currentColor"/>
  <path d="M18.69 19.19C18.56 19.19 18.43 19.14 18.34 19.04L15.68 16.38C15.48 16.18 15.48 15.87 15.68 15.67C15.88 15.47 16.19 15.47 16.39 15.67L19.05 18.33C19.25 18.53 19.25 18.84 19.05 19.04C18.95 19.14 18.82 19.19 18.7 19.19H18.69Z" fill="currentColor"/>
  <path d="M7.11 7.61C6.98 7.61 6.85 7.56 6.76 7.46L4.1 4.8C3.9 4.6 3.9 4.29 4.1 4.09C4.3 3.89 4.61 3.89 4.81 4.09L7.47 6.75C7.67 6.95 7.67 7.26 7.47 7.46C7.37 7.56 7.24 7.61 7.12 7.61H7.11Z" fill="currentColor"/>
  <path d="M4.45 19.19C4.32 19.19 4.19 19.14 4.1 19.04C3.9 18.84 3.9 18.53 4.1 18.33L6.76 15.67C6.96 15.47 7.27 15.47 7.47 15.67C7.67 15.87 7.67 16.18 7.47 16.38L4.81 19.04C4.71 19.14 4.58 19.19 4.46 19.19H4.45Z" fill="currentColor"/>
  <path d="M16.03 7.61C15.9 7.61 15.77 7.56 15.68 7.46C15.48 7.26 15.48 6.95 15.68 6.75L18.34 4.09C18.54 3.89 18.85 3.89 19.05 4.09C19.25 4.29 19.25 4.6 19.05 4.8L16.39 7.46C16.29 7.56 16.16 7.61 16.04 7.61H16.03Z" fill="currentColor"/>
</svg>
