<svg width="24" height="24" viewBox="0 0 24 24" fill="none" xmlns="http://www.w3.org/2000/svg">
<path d="M5.02751 20.7744C2.80827 20.7744 1 18.9662 1 16.7469C1 15.0665 2.03199 13.5961 3.59368 13.0025C3.89506 10.5184 6.00471 8.61883 8.52532 8.61883C9.91349 8.61883 11.2377 9.21246 12.1875 10.2536C12.4341 10.2079 12.6533 10.1897 12.8816 10.1897C14.6351 10.1897 16.1694 11.3312 16.7082 12.9843C18.3064 13.5596 19.3567 15.0482 19.3567 16.756C19.3567 18.9114 17.6671 20.674 15.5118 20.7653C15.4936 20.7653 5.10057 20.7836 5.03664 20.7836L5.02751 20.7744ZM8.52532 9.5321C6.37915 9.5321 4.60741 11.2125 4.47955 13.3678L4.46128 13.6875L4.15077 13.7788C2.8174 14.1715 1.91327 15.3679 1.91327 16.7469C1.91327 18.4639 3.31057 19.8612 5.02751 19.8612C5.09144 19.8612 15.4844 19.8429 15.4844 19.8429C17.1374 19.7698 18.4434 18.4091 18.4434 16.7469C18.4434 15.3679 17.5393 14.1715 16.2059 13.7788L15.9593 13.7057L15.8954 13.45C15.5483 12.0619 14.3063 11.0938 12.8907 11.0938C12.6624 11.0938 12.425 11.1303 12.1419 11.1942L11.8588 11.2673L11.6761 11.039C10.8907 10.0801 9.7491 9.5321 8.53446 9.5321H8.52532Z" fill="currentColor"/>
<path d="M17.1283 14.1989L16.7265 13.998C16.5529 13.9158 16.3794 13.8336 16.1876 13.7788L15.9411 13.7057L15.8771 13.45C15.5301 12.0619 14.288 11.0938 12.8725 11.0938C12.6442 11.0938 12.4067 11.1303 12.1236 11.1943L11.8405 11.2673L11.6578 11.039C11.2195 10.5002 10.6441 10.0801 10.0048 9.82435L9.46599 9.60517L9.81303 9.13027C10.6532 7.97042 11.9957 7.28547 13.4113 7.28547C15.868 7.28547 17.8681 9.28553 17.8681 11.7422C17.8681 12.4454 17.6945 13.1395 17.3475 13.7971L17.1374 14.1989H17.1283ZM16.6899 12.9843H16.6991C16.8543 12.5824 16.9365 12.1623 16.9365 11.7422C16.9365 9.78782 15.3474 8.19874 13.393 8.19874C12.4432 8.19874 11.5574 8.57318 10.8907 9.24899C11.3656 9.51384 11.7948 9.85175 12.1601 10.2536C12.4067 10.2079 12.6259 10.1897 12.8542 10.1897C14.6077 10.1897 16.1511 11.3312 16.6808 12.9934L16.6899 12.9843Z" fill="currentColor"/>
<path d="M18.416 9.79694C18.2242 9.79694 18.0416 9.67822 17.9776 9.4773C17.9046 9.23985 18.0324 8.98413 18.2699 8.90194L21.3202 7.91561C21.5577 7.84255 21.8134 7.97041 21.8956 8.20786C21.9686 8.44531 21.8408 8.70102 21.6033 8.78322L18.553 9.76954C18.5073 9.78781 18.4617 9.78781 18.416 9.78781V9.79694Z" fill="currentColor"/>
<path d="M12.1784 6.96583C11.9866 6.96583 11.804 6.8471 11.74 6.64618L10.7537 3.59587C10.6806 3.35842 10.8085 3.10271 11.0459 3.02051C11.2834 2.94745 11.5391 3.07531 11.6213 3.31276L12.6076 6.36307C12.6807 6.60052 12.5528 6.85623 12.3154 6.93843C12.2697 6.95669 12.2241 6.95669 12.1784 6.95669V6.96583Z" fill="currentColor"/>
<path d="M15.8406 7.3494C15.7675 7.3494 15.6945 7.33113 15.6305 7.2946C15.4022 7.17588 15.32 6.9019 15.4296 6.68271L16.8909 3.83332C17.0004 3.605 17.2836 3.52281 17.5027 3.6324C17.7219 3.74199 17.8133 4.02511 17.7037 4.24429L16.2424 7.09368C16.1602 7.24894 16.005 7.34027 15.8406 7.34027V7.3494Z" fill="currentColor"/>
<path d="M21.5485 14.4089C21.4846 14.4089 21.4115 14.3907 21.3476 14.3633L18.4525 12.9751C18.2242 12.8655 18.1329 12.5915 18.2334 12.3632C18.343 12.1349 18.6169 12.0436 18.8452 12.144L21.7403 13.5322C21.9686 13.6418 22.0599 13.9158 21.9595 14.1441C21.8773 14.3085 21.722 14.3998 21.5485 14.3998V14.4089Z" fill="currentColor"/>
<path d="M9.69431 8.18959C9.61211 8.18959 9.52079 8.1622 9.44773 8.11653L6.74445 6.39046C6.5344 6.25347 6.47047 5.97035 6.60746 5.7603C6.74445 5.55025 7.02757 5.48632 7.23762 5.62331L9.94089 7.34939C10.1509 7.48638 10.2149 7.76949 10.0779 7.97954C9.98655 8.11653 9.84043 8.18959 9.69431 8.18959Z" fill="currentColor"/>
</svg>
