<svg width="24" height="24" viewBox="0 0 24 24" fill="none" xmlns="http://www.w3.org/2000/svg">
<path d="M6.26511 13.8713C3.91883 13.8713 2 11.962 2 9.60622C2 7.82038 3.0924 6.26252 4.74525 5.64508C5.06822 3.01382 7.30052 1 9.96978 1C11.4421 1 12.848 1.62694 13.8549 2.72884C14.1114 2.68135 14.3584 2.65285 14.5959 2.65285C16.4577 2.65285 18.082 3.85924 18.6425 5.61658C20.3333 6.22453 21.4542 7.80139 21.4542 9.60622C21.4542 11.886 19.6684 13.7478 17.3791 13.8523C17.3601 13.8523 6.33161 13.8713 6.26511 13.8713ZM9.96978 1.94991C7.68998 1.94991 5.79966 3.74525 5.66667 6.02505L5.64767 6.35752L5.3247 6.45251C3.89983 6.87047 2.94991 8.14335 2.94991 9.61572C2.94991 11.4396 4.43178 12.9309 6.26511 12.9309C6.34111 12.9309 17.3601 12.9119 17.3601 12.9119C19.1175 12.8359 20.5043 11.3826 20.5043 9.61572C20.5043 8.14335 19.5449 6.87047 18.12 6.45251L17.8636 6.37651L17.7971 6.11054C17.4266 4.63817 16.1062 3.60276 14.5959 3.60276C14.3489 3.60276 14.0924 3.64076 13.7979 3.71675L13.5035 3.79275L13.3135 3.55527C12.4776 2.52936 11.2617 1.94991 9.97928 1.94991H9.96978Z" fill="currentColor"/>
<path d="M4.47927 18.6684C4.31779 18.6684 4.1563 18.5829 4.07081 18.4309C3.93782 18.2029 4.01381 17.918 4.24179 17.785L7.63299 15.7997C7.86097 15.6667 8.14594 15.7427 8.27893 15.9706C8.41192 16.1986 8.33592 16.4836 8.10794 16.6166L4.71675 18.6019C4.64076 18.6494 4.55526 18.6684 4.47927 18.6684Z" fill="currentColor"/>
<path d="M7.76597 18.8299C7.67098 18.8299 7.57599 18.8014 7.4905 18.7444L4.29879 16.4456C4.08981 16.2936 4.04231 15.9991 4.1943 15.7807C4.34628 15.5717 4.64076 15.5147 4.85924 15.6762L8.05095 17.975C8.25993 18.1269 8.30742 18.4214 8.15544 18.6399C8.06045 18.7634 7.91796 18.8394 7.76597 18.8394V18.8299Z" fill="currentColor"/>
<path d="M6.16062 19.6373C5.89465 19.6373 5.68566 19.4188 5.68566 19.1624L5.71416 15.2297C5.71416 14.9637 5.93264 14.7548 6.18912 14.7548C6.45509 14.7548 6.66408 14.9732 6.66408 15.2297L6.63558 19.1624C6.63558 19.4283 6.4171 19.6373 6.16062 19.6373Z" fill="currentColor"/>
<path d="M9.84629 22.0311C9.6848 22.0311 9.52332 21.9456 9.43782 21.7936C9.30484 21.5656 9.38083 21.2807 9.60881 21.1477L13 19.1623C13.2185 19.0294 13.513 19.1054 13.6459 19.3333C13.7789 19.5613 13.7029 19.8463 13.475 19.9793L10.0838 21.9646C10.0078 22.0121 9.92228 22.0311 9.84629 22.0311Z" fill="currentColor"/>
<path d="M13.133 22.1926C13.038 22.1926 12.943 22.1641 12.8575 22.1071L9.6658 19.8083C9.45682 19.6563 9.40933 19.3618 9.56131 19.1434C9.7133 18.9344 10.0078 18.8774 10.2263 19.0389L13.418 21.3377C13.6269 21.4896 13.6744 21.7841 13.5225 22.0026C13.4275 22.1261 13.285 22.2021 13.133 22.2021V22.1926Z" fill="currentColor"/>
<path d="M11.5276 23C11.2617 23 11.0527 22.7815 11.0527 22.525L11.0812 18.5924C11.0812 18.3264 11.3377 18.1269 11.5561 18.1174C11.8221 18.1174 12.0311 18.3359 12.0311 18.5924L12.0026 22.525C12.0026 22.7815 11.7841 23 11.5276 23Z" fill="currentColor"/>
<path d="M15.6313 18.6494C15.4698 18.6494 15.3083 18.5639 15.2228 18.4119C15.0898 18.1839 15.1658 17.899 15.3938 17.766L18.785 15.7807C19.013 15.6477 19.2979 15.7237 19.4309 15.9516C19.5639 16.1796 19.4879 16.4646 19.2599 16.5976L15.8687 18.5829C15.7928 18.6304 15.7073 18.6494 15.6313 18.6494Z" fill="currentColor"/>
<path d="M18.9275 18.8014C18.8325 18.8014 18.7375 18.7729 18.652 18.7159L15.4603 16.4171C15.2513 16.2651 15.2038 15.9706 15.3558 15.7522C15.5078 15.5432 15.8022 15.4957 16.0207 15.6477L19.2124 17.9465C19.4214 18.0985 19.4689 18.3929 19.3169 18.6114C19.2219 18.7349 19.0794 18.8109 18.9275 18.8109V18.8014Z" fill="currentColor"/>
<path d="M17.3126 19.6183C17.0466 19.6183 16.8377 19.3998 16.8377 19.1433L16.8662 15.2107C16.8662 14.9447 17.0656 14.6978 17.3411 14.7357C17.6071 14.7357 17.8161 14.9542 17.8161 15.2107L17.7876 19.1433C17.7876 19.4093 17.5691 19.6183 17.3126 19.6183Z" fill="currentColor"/>
</svg>
